<?xml version="1.0" standalone="no"?>
<!DOCTYPE svg PUBLIC "-//W3C//DTD SVG 1.1//EN" "http://www.w3.org/Graphics/SVG/1.1/DTD/svg11.dtd" >
<svg xmlns="http://www.w3.org/2000/svg" xmlns:xlink="http://www.w3.org/1999/xlink" version="1.1">
<metadata>
Created by FontForge 20161013 at Sat Dec 15 15:38:22 2007
 By ,,,
Kato (version 3.03) by Keith Bates, K-Type Freebie 2002, 2007  www.k-type.com        keith@k-type.com
</metadata>
<defs>
<font id="Kato" horiz-adv-x="673" >
  <font-face 
    font-family="Kato"
    font-weight="400"
    font-stretch="normal"
    units-per-em="1000"
    panose-1="2 0 4 0 0 0 0 0 0 0"
    ascent="800"
    descent="-200"
    x-height="496"
    cap-height="702"
    bbox="-143 -246 1161 1022"
    underline-thickness="20"
    underline-position="-163"
    unicode-range="U+0020-F002"
  />
<missing-glyph horiz-adv-x="500" 
d="M63 0v800h375v-800h-375zM125 63h250v675h-250v-675z" />
    <glyph glyph-name=".notdef" horiz-adv-x="500" 
d="M63 0v800h375v-800h-375zM125 63h250v675h-250v-675z" />
    <glyph glyph-name=".null" horiz-adv-x="0" 
 />
    <glyph glyph-name="nonmarkingreturn" horiz-adv-x="323" 
 />
    <glyph glyph-name="space" unicode=" " horiz-adv-x="323" 
 />
    <glyph glyph-name="exclam" unicode="!" horiz-adv-x="249" 
d="M188 166h-112v536h112v-536zM197 25q0 -27 -19 -46t-46 -19t-46 19t-19 46t19 46t46 19t46 -19t19 -46z" />
    <glyph glyph-name="quotedbl" unicode="&#x22;" horiz-adv-x="319" 
d="M96 602l23 207h-102l25 -207h54zM246 602l23 207h-102l25 -207h54z" />
    <glyph glyph-name="numbersign" unicode="#" horiz-adv-x="1144" 
d="M590 141q0 -78 -25 -109.5t-76 -31.5h-98v119h48q27 0 27 45v417l-247 -1v-580h-123v581h-70v121h243v98h124v-98h197v-561zM1132 53q0 -27 -19 -46t-46 -19t-46 19t-19 46t19 46t46 19t46 -19t19 -46zM961 -1h-306v422h306v-422zM888 73v268h-162v-268h162z" />
    <glyph glyph-name="dollar" unicode="$" horiz-adv-x="648" 
d="M599 331q1 -100 -18 -154q-21 -59 -86 -109q-47 -36 -105 -53l1 -106h-105l-1 89q-34 -2 -111 1q-88 3 -123 3v120q41 0 104 -1l84 -1q85 0 127 17q51 21 93 83q18 27 18 94q0 25 -2 48l-424 2l-1 165q0 47 28 91t71 65q14 7 70 16t60 5q1 -2 1 94h110v-98h209v-124
l-272 1q-105 0 -140 -39q-15 -17 -15 -56h425z" />
    <glyph glyph-name="percent" unicode="%" horiz-adv-x="875" 
d="M525 674h52l-248 -650h-55zM320 282h-288v421h288v-421zM255 353v277h-159v-277h159zM831 -1h-289v421h289v-421zM765 71v277h-159v-277h159z" />
    <glyph glyph-name="ampersand" unicode="&#x26;" horiz-adv-x="684" 
d="M627 0h-79q-116 0 -196 42q-54 -49 -146 -77q-81 -25 -164 -27v116q129 10 178 47q-94 57 -137 130q-49 82 -49 208q0 116 66 188.5t181 72.5q110 0 172 -75q58 -72 58 -190q0 -85 -22 -151q-18 -54 -66 -137q87 -31 204 -28v-119zM390 422q0 160 -113 159
q-54 -1 -84 -51q-25 -42 -25 -99q0 -87 38 -144q32 -49 111 -100q43 59 59 114q14 48 14 121z" />
    <glyph glyph-name="quotesingle" unicode="'" horiz-adv-x="168" 
d="M96 602l23 207h-102l25 -207h54z" />
    <glyph glyph-name="parenleft" unicode="(" horiz-adv-x="216" 
d="M143 801h46q-56 -265 -56 -439q0 -178 56 -420h-46q-83 211 -83 450q0 236 83 409z" />
    <glyph glyph-name="parenright" unicode=")" horiz-adv-x="216" 
d="M69 801h-46q56 -265 56 -439q0 -178 -56 -420h46q83 211 83 450q0 236 -83 409z" />
    <glyph glyph-name="asterisk" unicode="*" horiz-adv-x="420" 
d="M289 389l63 -62l-45 -46l-63 63v-89h-64v89l-63 -63l-45 46l63 62h-89v65h89l-63 62l45 46l63 -63v88h64v-88l63 63l45 -46l-63 -62h89v-65h-89z" />
    <glyph glyph-name="plus" unicode="+" horiz-adv-x="442" 
d="M56 379h105v105h123v-105h104v-123h-104v-104h-123v104h-105v123z" />
    <glyph glyph-name="comma" unicode="," horiz-adv-x="223" 
d="M22 -137l67 207h102l-115 -207h-54z" />
    <glyph glyph-name="hyphen" unicode="-" horiz-adv-x="321" 
d="M27 305h257v-108h-257v108z" />
    <glyph glyph-name="hyphen" unicode="&#x2010;" horiz-adv-x="321" 
d="M27 305h257v-108h-257v108z" />
    <glyph glyph-name="period" unicode="." horiz-adv-x="235" 
d="M182 48q0 -27 -19 -46t-46 -19t-46 19t-19 46t19 46t46 19t46 -19t19 -46z" />
    <glyph glyph-name="slash" unicode="/" horiz-adv-x="400" 
d="M299 711h82l-277 -715h-85z" />
    <glyph glyph-name="zero" unicode="0" horiz-adv-x="630" 
d="M569 0h-501v702h501v-702zM460 119v462h-285v-462h285z" />
    <glyph glyph-name="one" unicode="1" horiz-adv-x="409" 
d="M323 0h-126v398l-82 -78l-72 78l158 144v160h122v-702z" />
    <glyph glyph-name="two" unicode="2" horiz-adv-x="641" 
d="M516 587q0 57 -26 91q-45 58 -114 58q-43 0 -67 -8l-160 -53l37 -109q22 7 101 37q38 14 57 14q18 0 31 -12t13 -30q0 -20 -12 -38l-347 -475l94 -78l184 236l130 -104q24 -19 30 -36q5 -12 4 -41v-39h128v47q0 108 -67 161q-49 39 -153 117l96 139q41 61 41 123z" />
    <glyph glyph-name="three" unicode="3" horiz-adv-x="684" 
d="M639 236q0 -119 -56 -184q-45 -52 -139 -52h-382v119h370q29 0 49.5 20.5t27.5 49.5q4 19 4 45q0 45 -9 71q-19 55 -64 55h-378v123h245q22 24 77 98h-324v121h558v-121h-109l-76 -98q65 0 102 -19q55 -29 83 -97q21 -52 21 -131z" />
    <glyph glyph-name="four" unicode="4" horiz-adv-x="685" 
d="M640 152h-150v-152h-118v152h-51q-179 0 -256 169q-20 44 -20 104q0 111 69 189q78 88 193 88h64v-121h-50q-109 0 -144 -92q-11 -29 -11 -64q0 -61 49 -110q25 -25 51 -32q22 -6 106 -7v180l116 1v-181h152v-124z" />
    <glyph glyph-name="five" unicode="5" horiz-adv-x="691" 
d="M638 581h-351l-79 -98h428q0 -202 -2 -241q-4 -88 -65 -149q-64 -64 -144 -81q-49 -10 -148 -13h-219v121q18 0 160 -1q163 -1 213 25q81 42 81 167v49h-454v122l86 99h-86v121h580v-121z" />
    <glyph glyph-name="six" unicode="6" horiz-adv-x="686" 
d="M636 124q0 -81 -29 -103q-17 -13 -36 -16q-26 -5 -99 -5h-266q-78 0 -109 21q-40 27 -40 106v574h134v-512q0 -38 15 -54t52 -16h186q39 0 51 15t12 55v104q0 34 -9 47q-13 20 -47 20h-140v123h219q47 0 76.5 -31t29.5 -77v-251z" />
    <glyph glyph-name="seven" unicode="7" horiz-adv-x="662" 
d="M627 582l-220 -188v-394h-123v360h-101v123h148l112 97h-401v122h585v-120z" />
    <glyph glyph-name="eight" unicode="8" horiz-adv-x="665" 
d="M617 102q0 -57 -31 -84q-21 -18 -108 -18h-285q-79 0 -96 12q-37 26 -37 87v278q0 64 16.5 84.5t90.5 20.5h279q31 0 40.5 10t8.5 39q-1 27 -8 36q-11 14 -46 14h-199q-47 0 -55 -11q-5 -7 -5 -44h-122v97q0 43 26 66q15 13 57 13h374q53 0 80 -26q17 -16 20 -47v-104
q0 -37 -45 -57q25 -8 32 -16q13 -14 13 -53v-297zM496 173v149q0 24 -15 33q-8 5 -30 5h-211q-27 0 -32 -1.5t-13 -9.5q-11 -11 -13 -20q-1 -4 -1 -26v-131q0 -31 20 -44q15 -10 43 -10l179 1q47 0 56 7q17 12 17 47z" />
    <glyph glyph-name="nine" unicode="9" horiz-adv-x="669" 
d="M622 581h-449v-11q-1 -119 48 -190q57 -83 171 -83h109v222h121v-519h-121v172h-126q-183 0 -265 147q-64 114 -64 310v73h576v-121z" />
    <glyph glyph-name="colon" unicode=":" horiz-adv-x="272" 
d="M214 288q0 -27 -19 -46t-46 -19t-46 19t-19 46t19 46t46 19t46 -19t19 -46zM214 50q0 -27 -19 -46t-46 -19t-46 19t-19 46t19 46t46 19t46 -19t19 -46z" />
    <glyph glyph-name="semicolon" unicode=";" horiz-adv-x="270" 
d="M214 288q0 -27 -19 -46t-46 -19t-46 19t-19 46t19 46t46 19t46 -19t19 -46zM35 -137l67 207h102l-115 -207h-54z" />
    <glyph glyph-name="less" unicode="&#x3c;" horiz-adv-x="321" 
d="M247 417l-68 -172l68 -191h-63l-124 191l124 172h63z" />
    <glyph glyph-name="equal" unicode="=" horiz-adv-x="460" 
d="M66 483h332v-123h-332v123zM66 242h332v-123h-332v123z" />
    <glyph glyph-name="greater" unicode="&#x3e;" horiz-adv-x="321" 
d="M60 417l68 -172l-68 -191h62l125 191l-125 172h-62z" />
    <glyph glyph-name="question" unicode="?" horiz-adv-x="668" 
d="M644 537q2 -63 -8 -97q-14 -48 -56 -78q-34 -24 -90 -25q-43 0 -59 -12t-38 -62l-51 -116l-122 1l76 180h-238l-1 120h401q34 0 48 12.5t14 46.5q0 40 -8 54q-11 18 -47 18l-410 -1v124h417q27 0 75 -4q49 -10 75 -62q21 -42 22 -99zM348 47q0 -27 -19 -46t-46 -19
t-46 19t-19 46t19 46t46 19t46 -19t19 -46z" />
    <glyph glyph-name="at" unicode="@" horiz-adv-x="713" 
d="M669 321q0 -133 -93.5 -227t-226.5 -94q-134 0 -227.5 93.5t-93.5 227.5q0 133 94 226.5t227 93.5t226.5 -93.5t93.5 -226.5zM639 320q0 121 -84.5 205.5t-205.5 84.5t-205.5 -84.5t-84.5 -205.5t84.5 -205.5t205.5 -84.5t205.5 84.5t84.5 205.5zM534 129l-79 -35
q-20 30 -46 105q-26 -102 -141 -102q-69 0 -111 56q-37 51 -37 122q0 99 68 185q72 90 188 121l40 -59q-81 -23 -134.5 -87t-53.5 -128q0 -45 15.5 -65t56.5 -20q40 0 63 38q18 32 18 73q0 11 -7 83l107 28q0 -110 6 -161q11 -86 47 -154z" />
    <glyph glyph-name="A" unicode="A" horiz-adv-x="671" 
d="M630 103q0 -59 -35 -83q-29 -20 -89 -20h-100v120q23 0 49 1q30 -1 41.5 11.5t11.5 51.5v176h-292v-360h-122v360h-51v123h50v98h-49v121h251v98h125v-98h210v-599zM508 483v98h-291v-98h291z" />
    <glyph glyph-name="B" unicode="B" horiz-adv-x="633" 
d="M590 429q0 -203 -60 -298q-84 -131 -307 -131h-182v702h549v-273zM468 483v98h-302v-98h302zM467 360h-302v-241h89q75 0 129 40q83 60 84 201z" />
    <glyph glyph-name="C" unicode="C" horiz-adv-x="584" 
d="M546 0h-171q-152 0 -231 81q-100 100 -100 333v288h211v98h119v-98h172v-121h-379v-142q0 -146 37 -218q53 -102 192 -102h150v-119z" />
    <glyph glyph-name="D" unicode="D" horiz-adv-x="660" 
d="M614 393q0 -202 -86 -295q-91 -98 -300 -98v119q138 0 198.5 63.5t60.5 200.5v198h-317v-581h-123v702h567v-309z" />
    <glyph glyph-name="E" unicode="E" horiz-adv-x="668" 
d="M628 0h-231q-101 0 -185 60q-110 80 -110 231v69h-62v123h62v98h-62v121h588v-121h-401v-98h300v-123h-300v-53q0 -76 49 -127q57 -61 165 -61l187 1v-120z" />
    <glyph glyph-name="F" unicode="F" horiz-adv-x="626" 
d="M590 581h-310v-98h222v-123h-222v-199q0 -161 -178 -161h-57v119h39q40 1 55.5 17t15.5 56v168h-110v123h110v98h-110v121h545v-121z" />
    <glyph glyph-name="G" unicode="G" horiz-adv-x="576" 
d="M531 0h-128q-365 0 -365 372v330h211v97h121v-97h161v-121h-366v-185q0 -126 46 -193q36 -52 100 -71q23 -6 97 -13v272h123v-391z" />
    <glyph glyph-name="H" unicode="H" horiz-adv-x="652" 
d="M610 0h-122v188q0 172 -149 172q-62 -1 -103 0v-360h-127l1 360h-68v122h68v99h-69v121h537v-121h-344v-98q89 1 117 -1q121 -1 189 -72q70 -74 70 -213v-197z" />
    <glyph glyph-name="I" unicode="I" horiz-adv-x="381" 
d="M329 0h-273v119h72v240h-72v124h72v98h-72v121h273v-121h-78v-98h78v-123h-77v-241h77v-119z" />
    <glyph glyph-name="J" unicode="J" horiz-adv-x="378" 
d="M324 360h-74v-322q0 -88 -56 -166q-21 -29 -110 -118l-68 78q53 51 76 84q36 53 36 106l-1 338h-75v123h73v98h-73v121h272v-121h-77v-98h77v-123z" />
    <glyph glyph-name="K" unicode="K" horiz-adv-x="598" 
d="M543 0h-123q0 86 -0.5 170.5t-47.5 137t-126 52.5h-70v-360h-125v702h124v-219l97 -1q108 -1 188 -77q83 -80 83 -196v-209zM584 647l-100 -171l-107 59l99 176z" />
    <glyph glyph-name="L" unicode="L" horiz-adv-x="587" 
d="M564 146q-34 -76 -76 -110q-46 -36 -115 -36h-323v702h125v-583h181q71 0 107 80z" />
    <glyph glyph-name="M" unicode="M" horiz-adv-x="830" 
d="M783 133q0 -57 -36.5 -95t-92.5 -38h-87v119h43q50 0 50 49v192h-177v-65h-128v65h-181v-360h-124v702h305v98h128v-98h300v-569zM660 483v98h-177v-98h177zM355 483v98h-180v-98h180z" />
    <glyph glyph-name="N" unicode="N" horiz-adv-x="645" 
d="M604 139q0 -62 -34 -99q-36 -40 -106 -40h-59v119h21q54 0 54 50v412h-247v-581h-123v581h-70v121h243v98h124v-98h197v-563z" />
    <glyph glyph-name="O" unicode="O" horiz-adv-x="642" 
d="M601 0h-552v702h212l1 98h122v-98h217v-702zM475 119v462h-302v-462h302z" />
    <glyph glyph-name="P" unicode="P" horiz-adv-x="633" 
d="M594 702v-143q0 -173 -111 -273q-104 -92 -269 -92h6.5t-6.5 0h-47v-194h-124v702h212v98h122v-98h217zM465 581h-299v-264h55q125 0 188 71q55 62 55 164z" />
    <glyph glyph-name="Q" unicode="Q" horiz-adv-x="653" 
d="M636 74l-84 -84l-77 77q-77 -67 -244 -67h-181v703h550v-265q0 -119 -10.5 -179.5t-35.5 -102.5zM475 581h-302v-462h66q83 0 117 17q49 25 74.5 58t37.5 91q7 37 6 212z" />
    <glyph glyph-name="R" unicode="R" horiz-adv-x="645" 
d="M594 545q0 -175 -114 -270q-98 -81 -247 -81q-5 0 -67 1v-195h-122v703h550v-158zM633 20l-107 -61l-123 205l110 60zM470 533v48h-302v-268h81q101 0 161 62t60 158z" />
    <glyph glyph-name="S" unicode="S" horiz-adv-x="631" 
d="M592 581h-321q-57 0 -81.5 -21.5t-24.5 -76.5h426v-193q0 -150 -107 -226q-94 -67 -253 -67q-27 0 -93 2q-60 1 -94 1v119h73.5h70.5q281 0 282 195l-1 47h-425v148q0 87 57 142q54 51 133 51h358v-121z" />
    <glyph glyph-name="T" unicode="T" horiz-adv-x="620" 
d="M591 581h-218v-581h-122v360h-209v123h209v98h-209v121h549v-121z" />
    <glyph glyph-name="U" unicode="U" horiz-adv-x="681" 
d="M625 0h-574v702h120v-582h331v582h123v-702z" />
    <glyph glyph-name="V" unicode="V" horiz-adv-x="671" 
d="M622 363q0 -69 -29 -146q-28 -73 -66 -112q-62 -63 -144 -87q-102 -19 -334 -18v702h122v-580q151 -1 218 37q113 64 113 253v290l120 -1v-338z" />
    <glyph glyph-name="W" unicode="W" horiz-adv-x="878" 
d="M856 0h-828v119h62v583h123v-583h160v681h125v-681h160v583h125v-583h73v-119z" />
    <glyph glyph-name="X" unicode="X" horiz-adv-x="634" 
d="M596 0h-116q-1 24 1 29q0 90 -45 150q-80 -101 -171 -141q-85 -38 -220 -38v119q185 4 301 150q-76 51 -204 51h-97v124q114 2 179 -7q100 -13 170 -54q28 74 28 207q2 42 1 112h122v-147q0 -148 -41 -248q52 -60 76 -157q16 -64 16 -150z" />
    <glyph glyph-name="Y" unicode="Y" horiz-adv-x="603" 
d="M371 393l-95 -77l-246 332l100 73zM547 388q0 -183 -35 -243q-40 -69 -94 -101q-73 -44 -192 -44h-178v119h180q60 0 98 20q45 23 71 67q17 29 20 60q7 69 7 74v362h123v-314z" />
    <glyph glyph-name="Z" unicode="Z" horiz-adv-x="637" 
d="M601 0h-128v56q1 29 -4 41q-6 17 -30 36l-130 104l-199 -253l-94 78l381 519h-342v121h497v-117l-171 -243q50 -37 153 -117q67 -53 67 -161v-64z" />
    <glyph glyph-name="bracketleft" unicode="[" horiz-adv-x="308" 
d="M269 811v-56h-110v-802h110v-56h-166v914h166z" />
    <glyph glyph-name="backslash" unicode="\" horiz-adv-x="409" 
d="M111 711h-92l277 -715h95z" />
    <glyph glyph-name="bracketright" unicode="]" horiz-adv-x="308" 
d="M43 811v-56h110v-802h-110v-56h166v914h-166z" />
    <glyph glyph-name="asciicircum" unicode="^" horiz-adv-x="329" 
d="M275 200l-115 45l-127 -45v41l127 83l115 -83v-41z" />
    <glyph glyph-name="underscore" unicode="_" horiz-adv-x="552" 
d="M0 -46h518v-35h-518v35z" />
    <glyph glyph-name="grave" unicode="`" horiz-adv-x="305" 
d="M245 621l-207 67v102l207 -115v-54z" />
    <glyph glyph-name="a" unicode="a" horiz-adv-x="478" 
d="M455 26l-83 -37q-21 32 -49 111q-27 -108 -148 -108q-70 0 -115 59q-41 55 -41 129q0 104 71 194q76 95 199 128l42 -62q-86 -25 -142 -92t-56 -135q0 -89 76 -89q42 0 66 40q19 33 19 77q0 51 -8 107l113 30q0 -121 7 -180q11 -101 49 -172z" />
    <glyph glyph-name="b" unicode="b" horiz-adv-x="486" 
d="M453 198q0 -99 -56.5 -158t-155.5 -59q-219 0 -219 341q0 174 57 478h80q-38 -324 -38 -448q0 -245 128 -245q46 0 70.5 28.5t24.5 74.5q0 43 -34 80q-29 31 -74 50l79 79q62 -26 100 -87t38 -134z" />
    <glyph glyph-name="c" unicode="c" horiz-adv-x="434" 
d="M401 140q-28 -73 -67 -108q-45 -41 -118 -41q-90 0 -143 70q-49 64 -49 156q0 182 225 304l37 -60q-153 -113 -153 -227q0 -38 23 -72q25 -39 62 -39q55 0 97 77z" />
    <glyph glyph-name="d" unicode="d" horiz-adv-x="509" 
d="M465 304q0 -130 -40 -211q-55 -112 -181 -112q-96 0 -154 59.5t-58 159.5q0 146 138 220l78 -80q-39 -12 -72 -46q-36 -39 -36 -80q0 -47 24 -76q26 -32 71 -31q131 2 131 254q0 214 -146 390l47 49q108 -112 160 -268q38 -116 38 -228z" />
    <glyph glyph-name="e" unicode="e" horiz-adv-x="516" 
d="M479 98q-39 -48 -98 -79q-63 -34 -124 -34q-109 0 -171 71q-58 67 -58 177q0 103 73 194q77 96 177 96q74 0 122 -36q53 -40 53 -106q0 -57 -32 -104q-17 -23 -77 -81l-91 73q31 24 57 59q32 42 32 71q0 36 -37 36q-64 0 -121 -96q-50 -87 -50 -157q0 -103 95 -103
q50 0 88 27q22 15 67 65z" />
    <glyph glyph-name="f" unicode="f" horiz-adv-x="280" 
d="M121 -78q75 44 75 171q0 19 -4 82q-6 112 -17 209q33 16 52 20l16 133q-50 -12 -87 -35q-8 91 -8 110q0 37 16 64q19 33 53 33q16 0 56 -10l17 102q-55 10 -60 10q-175 0 -175 -222q0 6 11 -140l4 -20l12 -91q12 -71 28 -212q3 -54 3 -48q0 -70 -34 -96q-26 -20 -63 -20
q-11 0 -21 2l-36 -72q22 -4 43 -4q62 0 119 34z" />
    <glyph glyph-name="g" unicode="g" horiz-adv-x="456" 
d="M416 171q0 -181 -51 -271q-64 -111 -216 -111q-42 0 -117 19l43 114q51 -13 71 -13q113 0 152 89q26 57 26 183q0 260 -104 260q-50 0 -76 -53q-21 -43 -21 -100q0 -102 140 -102l-42 -105q-81 0 -135 47q-59 51 -59 137q0 94 46 164q53 80 142 80q110 0 158 -91
q43 -81 43 -247z" />
    <glyph glyph-name="h" unicode="h" horiz-adv-x="441" 
d="M403 331q0 -98 -40 -200q-43 -108 -112 -170l-62 84q106 132 106 256q0 41 -16 73q-20 41 -57 41q-95 0 -95 -311q0 -28 1 -64t1 -40h-85q-20 178 -20 338q0 146 17 242q22 128 81 229l101 -41q-85 -183 -93 -331q28 34 50 49q32 20 78 20q73 1 111 -50q34 -46 34 -125z
" />
    <glyph glyph-name="i" unicode="i" horiz-adv-x="237" 
d="M212 636q0 -27 -19 -46t-46 -19t-46 19t-19 46t19 46t46 19t46 -19t19 -46zM191 465q-39 -87 -39 -230q0 -120 27 -219l-82 -26q-69 133 -69 308q0 116 35 203z" />
    <glyph glyph-name="j" unicode="j" horiz-adv-x="299" 
d="M164 635q0 -27 -19 -46t-46 -19t-46 19t-19 46t19 46t46 19t46 -19t19 -46zM238 200q0 -158 -41 -253q-46 -105 -118 -147h-67q103 100 101 291q-1 87 -17 158l-48 212l139 52q51 -180 51 -313z" />
    <glyph glyph-name="k" unicode="k" horiz-adv-x="438" 
d="M402 455l-76 -103q70 -62 70 -182v-170h-111q10 62 10 178q0 63 -36 109q-39 49 -101 49q-17 0 -35 -4q9 -134 68 -332l-110 -12q-46 208 -46 396q0 171 36 355l119 67q-61 -201 -71 -381q22 6 45 6q41 0 80 -19l70 108z" />
    <glyph glyph-name="l" unicode="l" horiz-adv-x="250" 
d="M219 632q0 -195 -37 -354q-26 -115 -94 -287l-65 17q12 73 37 217q17 94 19 254q2 135 -13 279l146 52q7 -73 7 -178z" />
    <glyph glyph-name="m" unicode="m" horiz-adv-x="636" 
d="M601 327q0 -85 -30 -169q-14 -42 -70 -158l-108 38q114 176 114 289q0 72 -60 72q-43 0 -77 -38q7 -47 7 -96q0 -62 -26 -145h-115q46 137 46 206q0 39 -16 82q-20 56 -51 56q-86 0 -86 -203q0 -113 42 -240l-102 -52q-46 148 -46 273q0 126 35 219q50 130 155 130
t142 -157q59 67 135 67q60 0 89 -60q22 -46 22 -114z" />
    <glyph glyph-name="n" unicode="n" horiz-adv-x="507" 
d="M470 272q0 -78 -31 -149q-25 -57 -81 -130l-91 75q82 109 82 209q0 49 -19 84q-24 43 -68 43q-90 0 -90 -232q0 -38 2.5 -88.5t2.5 -54.5l-111 -27q0 19 1 71.5t1 83.5q0 221 -47 312l84 37q39 -58 48 -107q41 104 149 104q79 0 127 -79q41 -67 41 -152z" />
    <glyph glyph-name="o" unicode="o" horiz-adv-x="493" 
d="M461 238q0 -82 -27 -151q-33 -87 -93 -87q-101 0 -143 175l84 31q11 -46 16 -59q16 -36 45 -36q27 0 41 50q11 36 11 68q0 67 -40 130q-45 69 -106 69q-58 0 -90 -63q-26 -51 -26 -116q0 -114 67 -165l-10 -95q-81 26 -126 112q-39 75 -39 167q0 103 46 170q53 78 151 78
q105 0 172 -81t67 -197z" />
    <glyph glyph-name="p" unicode="p" horiz-adv-x="403" 
d="M370 301q0 -147 -141 -260l-55 92q59 61 73 85q28 46 28 118q0 43 -20 69q-23 30 -64 30q-86 0 -86 -169q0 -194 140 -441l-133 -38q-90 274 -90 469q0 262 172 262q90 0 136 -69q40 -59 40 -148z" />
    <glyph glyph-name="q" unicode="q" horiz-adv-x="463" 
d="M431 -18q0 -58 -2 -146l-127 -49q25 160 25 283q0 374 -97 374q-38 0 -67 -47q-26 -42 -26 -86q0 -103 116 -180l-71 -99q-153 96 -153 235q0 91 51 166q58 87 150 87q122 0 172 -220q29 -132 29 -318z" />
    <glyph glyph-name="r" unicode="r" horiz-adv-x="331" 
d="M320 439q-176 -7 -176 -178q0 -89 64 -222l-133 -54q-46 131 -46 232q0 271 277 302z" />
    <glyph glyph-name="s" unicode="s" horiz-adv-x="382" 
d="M354 172q0 -38 -46 -102q-16 -23 -75 -91l-96 81q99 81 99 114q0 42 -55 64q-51 20 -101 39q-55 31 -55 94q0 49 39 106q17 25 74 89l96 -82q-87 -67 -87 -112q0 -36 54 -64q50 -25 99 -49q54 -35 54 -87z" />
    <glyph glyph-name="t" unicode="t" horiz-adv-x="412" 
d="M396 616l-16 -137q-53 -20 -107 -27q5 -37 5 -74q0 -111 -38 -207q-34 -84 -108 -183l-68 46q111 141 111 286q0 70 -11 120l-27 -1q-56 -2 -121 18l16 77q34 -7 64 -7q25 0 52 7q-13 67 -51 161l109 42q30 -71 50 -181q75 17 140 60z" />
    <glyph glyph-name="u" unicode="u" horiz-adv-x="495" 
d="M474 29l-85 -37q-22 35 -48 107q-41 -104 -149 -104q-80 0 -127 73q-41 63 -41 148q0 133 112 278l97 -80q-87 -115 -87 -201q0 -46 20 -79q24 -40 66 -40q91 0 91 236q0 38 -2.5 87t-2.5 52l110 27v-197q0 -183 46 -270z" />
    <glyph glyph-name="v" unicode="v" horiz-adv-x="513" 
d="M484 415q0 -128 -78 -244q-59 -87 -179 -188q-46 224 -196 448l110 51q74 -115 124 -358q95 128 95 287q0 33 -5 104l129 21v-121z" />
    <glyph glyph-name="w" unicode="w" horiz-adv-x="692" 
d="M660 294q0 -88 -43 -139q-45 -55 -131 -55q-65 0 -109 64q0 -80 -42 -127t-121 -47q-96 0 -147 72q-45 64 -45 164q0 159 135 358l111 -70q-130 -156 -130 -281q0 -126 80 -126q70 0 70 108q0 41 -10 92l106 31q39 -127 116 -127q30 0 47 26q15 22 15 54q0 74 -63 101
q-41 18 -129 18l1 110q126 0 201 -49q88 -58 88 -177z" />
    <glyph glyph-name="x" unicode="x" horiz-adv-x="532" 
d="M509 0h-112q2 86 -36 141q-133 -141 -336 -141v109q181 0 272 115q-42 50 -114 50q-51 0 -106 -26l-34 104q56 30 122 30q108 0 179 -70q14 27 14 88q0 44 -7 104h130q0 -198 -53 -272q83 -83 81 -232z" />
    <glyph glyph-name="y" unicode="y" horiz-adv-x="494" 
d="M465 87q0 -115 -78 -188q-58 -53 -184 -99l-33 61q99 48 133 79q58 54 58 140q0 48 -31 138q-3 7 -52 136l119 50q68 -204 68 -317zM280 86q-72 -57 -142 -57q-54 0 -85.5 35.5t-31.5 90.5q0 62 45 182q36 94 79 173l119 -48q-136 -193 -135 -278q0 -40 34 -40t105 49z
" />
    <glyph glyph-name="z" unicode="z" horiz-adv-x="424" 
d="M386 67q0 -135 -138 -267l-82 34q47 45 78 103t32 104q1 41 -25 66q-24 22 -59 22q-20 0 -38 -8l-57 73q56 39 116.5 106.5t61.5 93.5q0 47 -49 47q-53 0 -138 -75l-79 86q63 40 104 57q61 25 125 25q77 0 115 -42q29 -31 30 -78q1 -42 -53 -112q-42 -54 -93 -97
q69 6 111 -39q38 -40 38 -99z" />
    <glyph glyph-name="braceleft" unicode="{" horiz-adv-x="308" 
d="M269 -103h-166v435h-55v56h55v423h166v-56h-110v-802h110v-56z" />
    <glyph glyph-name="bar" unicode="|" horiz-adv-x="244" 
d="M83 801h96v-859h-96v859z" />
    <glyph glyph-name="braceright" unicode="}" horiz-adv-x="308" 
d="M46 -103h166v435h55v56h-55v423h-166v-56h110v-802h-110v-56z" />
    <glyph glyph-name="asciitilde" unicode="~" horiz-adv-x="323" 
d="M275 202q-46 -19 -62 -19q-38 0 -71 46q-22 30 -42 30q-24 0 -63 -47q-1 20 -1 38t1 34q10 8 30 22q26 17 42 17q7 0 12 -3q20 4 42.5 -30.5t45.5 -34.5q26 0 66 22v-75z" />
    <glyph glyph-name="nonbreakingspace" unicode="&#xa0;" horiz-adv-x="323" 
 />
    <glyph glyph-name="exclamdown" unicode="&#xa1;" horiz-adv-x="253" 
d="M192 679q0 -27 -19 -46t-46 -19t-46 19t-19 46t19 46t46 19t46 -19t19 -46zM187 0l-112 1v537q41 -1 68 -1q29 0 44 1v-538z" />
    <glyph glyph-name="cent" unicode="&#xa2;" horiz-adv-x="445" 
d="M207 337v244q-16 -16 -31 -36q-31 -42 -31 -101q0 -33 15 -64q18 -35 47 -43zM207 763h41v-52q24 9 52 15l16 -76q-37 -15 -68 -36v-276q23 7 43 28q6 6 36 44l86 -60q-46 -111 -123 -138q-25 -9 -42 -10v-44h-41v44q-82 9 -129 78q-42 61 -42 147q0 67 23 116
q21 46 72 94q38 36 76 56v70z" />
    <glyph glyph-name="sterling" unicode="&#xa3;" horiz-adv-x="654" 
d="M636 105q-25 -49 -84 -78q-54 -27 -113 -27h-322v360h-82v123h82v89q1 52 39 89q43 41 111 41h295v-121h-264q-56 0 -56 -54v-44h170v-123h-170v-241h120q49 0 88 12q48 15 82 59z" />
    <glyph glyph-name="currency" unicode="&#xa4;" horiz-adv-x="649" 
d="M624 581h-384v-98h287v-75h-290v-65h290v-76h-289q14 -150 202 -148l176 1l-1 -120h-181q-313 0 -320 267h-65v76h65v64h-66v76h70v219l506 1v-122z" />
    <glyph glyph-name="yen" unicode="&#xa5;" horiz-adv-x="586" 
d="M572 703l-216 -355h177l1 -76h-178v-75h176v-78h-175v-119h-122v119h-179v78h180v75h-180v76h177l-210 355h136l142 -241l137 241h134z" />
    <glyph glyph-name="brokenbar" unicode="&#xa6;" horiz-adv-x="254" 
d="M83 331h96v-389h-96v389zM83 801h96v-389h-96v389z" />
    <glyph glyph-name="section" unicode="&#xa7;" horiz-adv-x="631" 
d="M165 458q1 -31 1 -99h304v99h-305zM469 238h-425v368q0 83 53.5 138t136.5 55h358v-121h-321q-57 0 -80 -20q-26 -22 -26 -78h426v-409q0 -140 -125 -223q-105 -70 -235 -70q-76 0 -75 0l9 -1q-19 1 -121 2v121h68h69q117 0 191 38q98 52 98 166v33z" />
    <glyph glyph-name="dieresis" unicode="&#xa8;" horiz-adv-x="224" 
d="M122 761q0 -16 -11.5 -27.5t-27.5 -11.5t-27.5 11.5t-11.5 27.5t11.5 27.5t27.5 11.5t27.5 -11.5t11.5 -27.5zM249 758q0 -16 -11.5 -27.5t-27.5 -11.5t-27.5 11.5t-11.5 27.5t11.5 27.5t27.5 11.5t27.5 -11.5t11.5 -27.5z" />
    <glyph glyph-name="copyright" unicode="&#xa9;" horiz-adv-x="713" 
d="M669 321q0 -133 -93.5 -227t-226.5 -94q-134 0 -227.5 93.5t-93.5 227.5q0 133 94 226.5t227 93.5t226.5 -93.5t93.5 -226.5zM639 320q0 121 -84.5 205.5t-205.5 84.5t-205.5 -84.5t-84.5 -205.5t84.5 -205.5t205.5 -84.5t205.5 84.5t84.5 205.5zM532 216
q-42 -100 -105 -130q-40 -19 -82 -19q-83 0 -141 72q-50 62 -50 139q0 58 30 121q18 38 78 94q51 48 109 88l38 -70q-38 -30 -95 -95q-40 -46 -40 -111q0 -38 21 -71q24 -37 60 -37q34 0 64 32q11 11 34 42z" />
    <glyph glyph-name="ordfeminine" unicode="&#xaa;" horiz-adv-x="313" 
d="M38 198v42h234v-42h-234zM284 301l-50 -22q-12 19 -29 66q-16 -64 -89 -64q-44 0 -70 35q-24 32 -24 77q0 57 41 113q37 50 91 80l29 -33q-35 -25 -61 -61q-31 -43 -31 -79q0 -53 45 -53q26 0 40 24q11 20 11 46q0 7 -4 52l67 18q0 -136 34 -199z" />
    <glyph glyph-name="guillemotleft" unicode="&#xab;" horiz-adv-x="439" 
d="M217 417l-68 -172l68 -191h-63l-124 191l124 172h63zM407 417l-68 -172l68 -191h-63l-124 191l124 172h63z" />
    <glyph glyph-name="logicalnot" unicode="&#xac;" horiz-adv-x="450" 
d="M376 339v-171h-86v73h-219v98h305z" />
    <glyph glyph-name="minus" unicode="&#xad;" horiz-adv-x="420" 
d="M46 359h332v-123h-332v123z" />
    <glyph glyph-name="minus" unicode="&#x2212;" horiz-adv-x="420" 
d="M46 359h332v-123h-332v123z" />
    <glyph glyph-name="registered" unicode="&#xae;" horiz-adv-x="713" 
d="M669 321q0 -133 -93.5 -227t-226.5 -94q-134 0 -227.5 93.5t-93.5 227.5q0 133 94 226.5t227 93.5t226.5 -93.5t93.5 -226.5zM639 320q0 121 -84.5 205.5t-205.5 84.5t-205.5 -84.5t-84.5 -205.5t84.5 -205.5t205.5 -84.5t205.5 84.5t84.5 205.5zM479 480
q-106 -4 -140 -73q-19 -39 -19 -87q0 -81 58 -201l-120 -49q-42 119 -42 210q0 110 62 185q37 44 84 64q38 16 104 23z" />
    <glyph glyph-name="macron" unicode="&#xaf;" horiz-adv-x="666" 
d="M188 747h265v-60h-265v60z" />
    <glyph glyph-name="macron" unicode="&#x2c9;" horiz-adv-x="666" 
d="M188 747h265v-60h-265v60z" />
    <glyph glyph-name="degree" unicode="&#xb0;" horiz-adv-x="307" 
d="M141 560q-50 0 -85 35t-35 84q0 50 35 85t85 35t85 -35t35 -85q0 -49 -35 -84t-85 -35zM141 736q-24 0 -40.5 -16.5t-16.5 -40.5q0 -23 16.5 -39.5t40.5 -16.5t40.5 16.5t16.5 39.5q0 24 -16.5 40.5t-40.5 16.5z" />
    <glyph glyph-name="plusminus" unicode="&#xb1;" horiz-adv-x="420" 
d="M46 483h105v105h123v-105h104v-123h-104v-104h-123v104h-105v123zM46 163h332v-123h-332v123z" />
    <glyph glyph-name="twosuperior" unicode="&#xb2;" horiz-adv-x="421" 
d="M329 613q0 35 -15 55q-27 35 -69 35q-26 0 -40 -5l-96 -32l22 -65q13 4 60 22q24 8 35 8q26 0 26 -25q0 -12 -7 -23l-208 -285l56 -47l111 142l78 -62q21 -17 20 -47v-23h77v28q0 65 -40 97q-30 23 -92 70l58 83q24 37 24 74z" />
    <glyph glyph-name="threesuperior" unicode="&#xb3;" horiz-adv-x="465" 
d="M406 424q0 -95 -53 -127q-25 -15 -64 -15h-229v71h222q36 0 46 42q2 12 2 27q0 27 -5 43q-11 33 -38 33h-227v74h147q13 14 46 59h-194v72h334v-72h-65l-46 -59q40 0 62 -12q33 -17 49 -58q13 -31 13 -78z" />
    <glyph glyph-name="acute" unicode="&#xb4;" horiz-adv-x="305" 
d="M38 621l207 67v102l-207 -115v-54z" />
    <glyph glyph-name="mu" unicode="&#xb5;" horiz-adv-x="495" 
d="M28 -200h82q39 128 47 299q41 -104 149 -104q80 0 127 73q41 63 41 148q0 133 -112 278l-97 -80q87 -115 87 -201q0 -46 -20 -79q-24 -40 -66 -40q-92 0 -92 243q0 36 2 82.5t2 49.5l-108 27v-197q0 -342 -42 -499z" />
    <glyph glyph-name="mu" unicode="&#x3bc;" horiz-adv-x="495" 
d="M28 -200h82q39 128 47 299q41 -104 149 -104q80 0 127 73q41 63 41 148q0 133 -112 278l-97 -80q87 -115 87 -201q0 -46 -20 -79q-24 -40 -66 -40q-92 0 -92 243q0 36 2 82.5t2 49.5l-108 27v-197q0 -342 -42 -499z" />
    <glyph glyph-name="paragraph" unicode="&#xb6;" horiz-adv-x="722" 
d="M657 582v-750h-126v749h-103v-749h-126v419q-71 0 -136 42q-54 34 -91 88q-40 58 -52 136q-10 59 -10 185l291 -1v99h124v-98h268v-120h-39z" />
    <glyph glyph-name="periodcentered" unicode="&#xb7;" horiz-adv-x="235" 
d="M182 298q0 -27 -19 -46t-46 -19t-46 19t-19 46t19 46t46 19t46 -19t19 -46z" />
    <glyph glyph-name="periodcentered" unicode="&#x2219;" horiz-adv-x="235" 
d="M182 298q0 -27 -19 -46t-46 -19t-46 19t-19 46t19 46t46 19t46 -19t19 -46z" />
    <glyph glyph-name="cedilla" unicode="&#xb8;" horiz-adv-x="370" 
d="M414 -132q0 -35 -44 -68h-49q35 27 35 54q0 39 -43 39q-10 12 -10 29q0 10 6 24h60q-9 -15 -9 -27q0 -13 27 -23.5t27 -27.5z" />
    <glyph glyph-name="onesuperior" unicode="&#xb9;" horiz-adv-x="268" 
d="M203 281h-76v239l-49 -47l-43 47l95 86v96h73v-421z" />
    <glyph glyph-name="ordmasculine" unicode="&#xba;" horiz-adv-x="336" 
d="M37 196v42h247v-42h-247zM298 416q0 -48 -15 -91q-19 -52 -51 -52q-63 0 -86 110l50 19q16 -62 38 -62q12 0 19 30q5 22 5 41q0 40 -24 78q-27 41 -63 41q-35 0 -54 -38q-16 -30 -16 -69q0 -63 47 -114l-13 -42q-47 16 -75 67q-24 46 -24 100q0 62 28 102q32 47 91 47
q63 0 103 -48.5t40 -118.5z" />
    <glyph glyph-name="guillemotright" unicode="&#xbb;" horiz-adv-x="431" 
d="M220 417l68 -172l-68 -191h62l125 191l-125 172h-62zM30 417l68 -172l-68 -191h62l125 191l-125 172h-62z" />
    <glyph glyph-name="onequarter" unicode="&#xbc;" horiz-adv-x="784" 
d="M415 674h52l-248 -650h-55zM203 281h-76v239l-49 -47l-43 47l95 86v96h73v-421zM743 91h-90v-91h-71v91h-30q-108 0 -154 102q-12 26 -12 62q0 67 41 113q47 53 116 53h39v-72h-30q-74 0 -91 -68q-2 -12 -2 -26q0 -37 29 -66q15 -15 31 -19q13 -4 63 -4v108h70v-108h91
v-75z" />
    <glyph glyph-name="onehalf" unicode="&#xbd;" horiz-adv-x="734" 
d="M415 674h52l-248 -650h-55zM203 281h-76v239l-49 -47l-43 47l95 86v96h73v-421zM634 352q0 35 -15 55q-27 35 -69 35q-26 0 -40 -5l-96 -32l22 -65q13 4 60 22q24 8 35 8q26 0 26 -25q0 -12 -7 -23l-208 -285l56 -47l111 142l78 -62q21 -17 20 -47v-23h77v28q0 65 -40 97
q-30 23 -92 70l58 83q24 37 24 74z" />
    <glyph glyph-name="threequarters" unicode="&#xbe;" horiz-adv-x="976" 
d="M585 674h52l-248 -650h-55zM913 91h-90v-91h-71v91h-30q-108 0 -154 102q-12 26 -12 62q0 67 41 113q47 53 116 53h39v-72h-30q-75 0 -91 -68q-2 -12 -2 -26q0 -37 29 -66q15 -15 31 -19q13 -4 63 -4v108h70v-108h91v-75zM406 424q0 -96 -53 -127q-25 -15 -64 -15h-229
v71h222q36 0 46 42q2 12 2 27q0 27 -5 43q-11 33 -38 33h-227v74h147q13 14 46 59h-194v72h334v-72h-65l-46 -59q40 0 62 -12q33 -17 49 -58q13 -31 13 -78z" />
    <glyph glyph-name="questiondown" unicode="&#xbf;" horiz-adv-x="677" 
d="M341 650q0 -27 19 -46t46 -19t46 19t19 46t-19 46t-46 19t-46 -19t-19 -46zM45 163q1 -57 22 -99q26 -53 75 -62q22 -4 75 -4h417v124l-410 -1q-36 0 -47 18q-8 14 -8 54q0 34 14 46.5t48 12.5h401l-1 120h-238l76 177l-122 1l-51 -112q-24 -52 -36 -61q-18 -14 -61 -14
q-110 -1 -142 -91q-14 -38 -12 -109z" />
    <glyph glyph-name="Agrave" unicode="&#xc0;" 
d="M444 853l-207 67v102l207 -115v-54zM618 86q0 -57 -31 -73q-19 -10 -85 -11l-108 -1v120h52q34 0 43 15q7 11 7 49v175l-292 -1v-358h-121l-1 359h-51v123h50v98h-45l-1 123h248v96h125l-1 -96h210zM496 483v98h-291l1 -98h290z" />
    <glyph glyph-name="Aacute" unicode="&#xc1;" 
d="M241 845l207 67v102l-207 -115v-54zM618 86q0 -57 -31 -73q-19 -10 -85 -11l-108 -1v120h52q34 0 43 15q7 11 7 49v175l-292 -1v-358h-121l-1 359h-51v123h50v98h-45l-1 123h248v96h125l-1 -96h210zM496 483v98h-291l1 -98h290z" />
    <glyph glyph-name="Acircumflex" unicode="&#xc2;" 
d="M471 843l-115 45l-127 -45v41l127 83l115 -83v-41zM618 86q0 -57 -31 -73q-19 -10 -85 -11l-108 -1v120h52q34 0 43 15q7 11 7 49v175l-292 -1v-358h-121l-1 359h-51v123h50v98h-45l-1 123h248v96h125l-1 -96h210zM496 483v98h-291l1 -98h290z" />
    <glyph glyph-name="Atilde" unicode="&#xc3;" 
d="M461 873q-46 -19 -62 -19q-38 0 -71 46q-22 30 -42 30q-24 0 -63 -47q-1 20 -1 38t1 34q10 8 30 22q26 17 42 17q7 0 12 -3q20 4 42.5 -30.5t45.5 -34.5q26 0 66 22v-75zM618 86q0 -57 -31 -73q-19 -10 -85 -11l-108 -1v120h52q34 0 43 15q7 11 7 49v175l-292 -1v-358
h-121l-1 359h-51v123h50v98h-45l-1 123h248v96h125l-1 -96h210zM496 483v98h-291l1 -98h290z" />
    <glyph glyph-name="Adieresis" unicode="&#xc4;" 
d="M442 870q0 -16 -11.5 -27.5t-27.5 -11.5t-27.5 11.5t-11.5 27.5t11.5 27.5t27.5 11.5t27.5 -11.5t11.5 -27.5zM315 873q0 -16 -11.5 -27.5t-27.5 -11.5t-27.5 11.5t-11.5 27.5t11.5 27.5t27.5 11.5t27.5 -11.5t11.5 -27.5zM618 86q0 -57 -31 -73q-19 -10 -85 -11l-108 -1
v120h52q34 0 43 15q7 11 7 49v175l-292 -1v-358h-121l-1 359h-51v123h50v98h-45l-1 123h248v96h125l-1 -96h210zM496 483v98h-291l1 -98h290z" />
    <glyph glyph-name="Aring" unicode="&#xc5;" 
d="M414 904q0 -27 -19.5 -46.5t-47.5 -19.5q-27 0 -46.5 19.5t-19.5 46.5q0 28 19.5 47.5t46.5 19.5q28 0 47.5 -19.5t19.5 -47.5zM387 904q0 17 -11.5 28.5t-28.5 11.5q-16 0 -28 -11.5t-12 -28.5q0 -16 12 -28t28 -12q17 0 28.5 12t11.5 28zM618 86q0 -57 -31 -73
q-19 -10 -85 -11l-108 -1v120h52q34 0 43 15q7 11 7 49v175l-292 -1v-358h-121l-1 359h-51v123h50v98h-45l-1 123h248v96h125l-1 -96h210zM496 483v98h-291l1 -98h290z" />
    <glyph glyph-name="AE" unicode="&#xc6;" horiz-adv-x="1048" 
d="M1032 581h-401v-98h300v-120h-300v-151q0 -47 42 -73q29 -18 134 -18q36 0 109 -1h110v-121h-129q-85 1 -128 1q-125 0 -153 46q-17 -29 -50 -39q-21 -7 -64 -7l-108 -1v122h52q50 0 50 49v190h-292v-361h-122v361h-51v123h28h22v98h-45v122h247v97h125v-97l624 1v-123z
M496 483v98h-290v-98h290z" />
    <glyph glyph-name="Ccedilla" unicode="&#xc7;" horiz-adv-x="575" 
d="M414 -132q0 -35 -44 -68h-49q35 27 35 54q0 39 -43 39q-10 12 -10 29q0 10 6 24h60q-9 -15 -9 -27q0 -13 27 -23.5t27 -27.5zM569 579h-384v-68q0 -170 17 -242q20 -84 78 -129q29 -22 82 -28q45 -5 196 -4v-108h-28q-26 -1 -38 -1h-63q-110 0 -167 19q-71 23 -119 91
q-43 59 -61 140q-20 90 -20 256v197h211v98h118l1 -98h177v-123z" />
    <glyph glyph-name="Egrave" unicode="&#xc8;" horiz-adv-x="638" 
d="M428 767l-207 67v102l207 -115v-54zM619 579h-401v-100l300 -1v-119h-300q0 -111 11 -147q20 -66 134 -80q71 -9 250 -9l1 -122q-239 0 -307 11q-60 10 -129 54q-62 40 -79 132q-7 39 -7 160h-61v123h62v96h-60v126l586 2v-126z" />
    <glyph glyph-name="Eacute" unicode="&#xc9;" horiz-adv-x="639" 
d="M228 744l207 67v102l-207 -115v-54zM619 579h-401v-100l300 -1v-119h-300q0 -111 11 -147q20 -66 134 -80q71 -9 250 -9l1 -122q-239 0 -307 11q-60 10 -129 54q-62 40 -79 132q-7 39 -7 160h-61v123h62v96h-60v126l586 2v-126z" />
    <glyph glyph-name="Ecircumflex" unicode="&#xca;" horiz-adv-x="638" 
d="M468 761l-115 45l-127 -45v41l127 83l115 -83v-41zM619 579h-401v-100l300 -1v-119h-300q0 -111 11 -147q20 -66 134 -80q71 -9 250 -9l1 -122q-239 0 -307 11q-60 10 -129 54q-62 40 -79 132q-7 39 -7 160h-61v123h62v96h-60v126l586 2v-126z" />
    <glyph glyph-name="Edieresis" unicode="&#xcb;" horiz-adv-x="638" 
d="M439 788q0 -16 -11.5 -27.5t-27.5 -11.5t-27.5 11.5t-11.5 27.5t11.5 27.5t27.5 11.5t27.5 -11.5t11.5 -27.5zM312 791q0 -16 -11.5 -27.5t-27.5 -11.5t-27.5 11.5t-11.5 27.5t11.5 27.5t27.5 11.5t27.5 -11.5t11.5 -27.5zM619 579h-401v-100l300 -1v-119h-300
q0 -111 11 -147q20 -66 134 -80q71 -9 250 -9l1 -122q-239 0 -307 11q-60 10 -129 54q-62 40 -79 132q-7 39 -7 160h-61v123h62v96h-60v126l586 2v-126z" />
    <glyph glyph-name="Igrave" unicode="&#xcc;" horiz-adv-x="398" 
d="M306 750l-207 67v102l207 -115v-54zM344 0h-274v124h72v231h-73v123l73 -1v102h-73v121h275v-121h-79v-101l78 -1v-120h-77v-234h78v-123z" />
    <glyph glyph-name="Iacute" unicode="&#xcd;" horiz-adv-x="398" 
d="M105 758l207 67v102l-207 -115v-54zM344 0h-274v124h72v231h-73v123l73 -1v102h-73v121h275v-121h-79v-101l78 -1v-120h-77v-234h78v-123z" />
    <glyph glyph-name="Icircumflex" unicode="&#xce;" horiz-adv-x="392" 
d="M336 749l-115 45l-127 -45v42l127 82l115 -82v-42zM344 0h-274v124h72v231h-73v123l73 -1v102h-73v121h275v-121h-79v-101l78 -1v-120h-77v-234h78v-123z" />
    <glyph glyph-name="Idieresis" unicode="&#xcf;" horiz-adv-x="400" 
d="M344 0h-274v124h72v231h-73v123l73 -1v102h-73v121h275v-121h-79v-101l78 -1v-120h-77v-234h78v-123zM183 792q0 -16 -11.5 -27.5t-27.5 -11.5t-27.5 11.5t-11.5 27.5t11.5 27.5t27.5 11.5t27.5 -11.5t11.5 -27.5zM310 789q0 -16 -11.5 -27.5t-27.5 -11.5t-27.5 11.5
t-11.5 27.5t11.5 27.5t27.5 11.5t27.5 -11.5t11.5 -27.5z" />
    <glyph glyph-name="Eth" unicode="&#xd0;" horiz-adv-x="655" 
d="M609 393q0 -202 -86 -295q-91 -98 -300 -98v119q138 0 198.5 63.5t60.5 200.5v198h-317v-96h47v-124h-47v-361h-123v361h-42v124h42v217h567v-309z" />
    <glyph glyph-name="Ntilde" unicode="&#xd1;" horiz-adv-x="645" 
d="M455 860q-46 -19 -62 -19q-38 0 -71 46q-22 30 -42 30q-24 0 -63 -47q-1 20 -1 38t1 34q10 8 30 22q26 17 42 17q7 0 12 -3q20 4 42.5 -30.5t45.5 -34.5q26 0 66 22v-75zM590 119q0 -54 -10 -80q-15 -39 -58 -39h-131v120h43q25 0 30 26q2 10 2 88v347l-247 -2v-579h-123
v581h-71l1 123h243v96h124v-96l197 -1v-584z" />
    <glyph glyph-name="Ograve" unicode="&#xd2;" horiz-adv-x="661" 
d="M424 847l-207 67v102l207 -115v-54zM601 0h-551v703h211l1 97h122v-97h217v-703zM475 120v463l-301 -1v-462h301z" />
    <glyph glyph-name="Oacute" unicode="&#xd3;" horiz-adv-x="661" 
d="M215 845l207 67v102l-207 -115v-54zM601 0h-551l-1 703h212l1 97h122v-97h217v-703zM475 120v463l-302 -1l1 -462h301z" />
    <glyph glyph-name="Ocircumflex" unicode="&#xd4;" horiz-adv-x="661" 
d="M442 836l-115 45l-127 -45v42l127 83l115 -83v-42zM601 0h-551l-1 703h212l1 97h122v-97h217v-703zM475 120v463l-302 -1l1 -462h301z" />
    <glyph glyph-name="Otilde" unicode="&#xd5;" horiz-adv-x="661" 
d="M455 870q-46 -19 -62 -19q-38 0 -71 46q-22 30 -42 30q-24 0 -63 -47q-1 20 -1 38t1 34q10 8 30 22q26 17 42 17q7 0 12 -3q20 4 42.5 -30.5t45.5 -34.5q26 0 66 22v-75zM601 0h-551l-1 703h212l1 97h122v-97h217v-703zM475 120v463l-302 -1l1 -462h301z" />
    <glyph glyph-name="Odieresis" unicode="&#xd6;" horiz-adv-x="661" 
d="M424 884q0 -16 -11.5 -27.5t-27.5 -11.5t-27.5 11.5t-11.5 27.5t11.5 27.5t27.5 11.5t27.5 -11.5t11.5 -27.5zM297 887q0 -16 -11.5 -27.5t-27.5 -11.5t-27.5 11.5t-11.5 27.5t11.5 27.5t27.5 11.5t27.5 -11.5t11.5 -27.5zM601 0h-551l-1 703h212l1 97h122v-97h217v-703z
M475 120v463l-302 -1l1 -462h301z" />
    <glyph glyph-name="multiply" unicode="&#xd7;" horiz-adv-x="420" 
d="M51 251l74 73l-74 74l87 87l74 -74l74 74l87 -87l-74 -74l74 -73l-87 -87l-74 74l-74 -74z" />
    <glyph glyph-name="Oslash" unicode="&#xd8;" horiz-adv-x="661" 
d="M263 119v462h-90v-462h90zM383 0v-69h-120v69h-214v702h212v98h123v-98h217v-702h-218zM383 581v-462h92v462h-92z" />
    <glyph glyph-name="Ugrave" unicode="&#xd9;" horiz-adv-x="685" 
d="M440 758l-207 67v102l207 -115v-54zM625 0h-575l1 702h120v-581h331v581h123v-702z" />
    <glyph glyph-name="Uacute" unicode="&#xda;" horiz-adv-x="676" 
d="M232 753l207 67v102l-207 -115v-54zM625 0h-575l1 702h120v-581h331v581h123v-702z" />
    <glyph glyph-name="Ucircumflex" unicode="&#xdb;" horiz-adv-x="680" 
d="M463 751l-115 45l-127 -45v41l127 83l115 -83v-41zM625 0h-575l1 702h120v-581h331v581h123v-702z" />
    <glyph glyph-name="Udieresis" unicode="&#xdc;" horiz-adv-x="685" 
d="M625 0h-575l1 702h120v-581h331v581h123v-702zM315 803q0 -16 -11.5 -27.5t-27.5 -11.5t-27.5 11.5t-11.5 27.5t11.5 27.5t27.5 11.5t27.5 -11.5t11.5 -27.5zM442 800q0 -16 -11.5 -27.5t-27.5 -11.5t-27.5 11.5t-11.5 27.5t11.5 27.5t27.5 11.5t27.5 -11.5t11.5 -27.5z
" />
    <glyph glyph-name="Yacute" unicode="&#xdd;" horiz-adv-x="603" 
d="M371 393l-95 -77l-246 332l100 73zM547 388q0 -183 -35 -243q-40 -69 -94 -101q-73 -44 -192 -44h-178v119h180q60 0 98 20q45 23 71 67q17 29 20 60q7 69 7 74v362h123v-314zM202 743l207 67v102l-207 -115v-54z" />
    <glyph glyph-name="Thorn" unicode="&#xde;" horiz-adv-x="633" 
d="M594 604v-143q0 -173 -111 -273q-104 -92 -269 -92h6.5t-6.5 0h-47v-96h-124v702h123v-98h89v98h122v-98h217zM465 483h-299v-264h55q125 0 188 71q55 62 55 164z" />
    <glyph glyph-name="germandbls" unicode="&#xdf;" horiz-adv-x="620" 
d="M497 46q-46 -46 -153 -46h-48l-12 73l22 -5q9 -2 19 -2q44 0 72 37q30 41 30 111q0 133 -152 138l-11 58q133 10 133 112q0 114 -103 114q-105 0 -106 -161q-2 -159 27 -532l-121 14q-9 113 -17 226q-12 162 -12 290q0 59 18 113.5t49 81.5q59 50 153 50q109 0 173 -50
t64 -141q0 -45 -22 -79q-16 -24 -99 -57q82 -31 118 -79q33 -45 33 -117q0 -93 -55 -149z" />
    <glyph glyph-name="agrave" unicode="&#xe0;" horiz-adv-x="472" 
d="M455 26l-83 -37q-21 32 -49 111q-27 -108 -148 -108q-73 0 -116 59q-40 54 -40 129q0 104 71 194q76 95 199 128l42 -62q-86 -25 -142 -92t-56 -135q0 -47 16.5 -68t59.5 -21q42 0 66 40q19 33 19 77q0 11 -8 87l113 30q0 -116 7 -170q11 -91 49 -162zM332 534l-207 67
v102l207 -115v-54z" />
    <glyph glyph-name="aacute" unicode="&#xe1;" horiz-adv-x="478" 
d="M455 26l-83 -37q-21 32 -49 111q-27 -108 -148 -108q-73 0 -116 59q-40 54 -40 129q0 104 71 194q76 95 199 128l42 -62q-86 -25 -142 -92t-56 -135q0 -47 16.5 -68t59.5 -21q42 0 66 40q19 33 19 77q0 11 -8 87l113 30q0 -116 7 -170q11 -91 49 -162zM142 528l207 67
v102l-207 -115v-54z" />
    <glyph glyph-name="acircumflex" unicode="&#xe2;" horiz-adv-x="475" 
d="M455 26l-83 -37q-21 32 -49 111q-27 -108 -148 -108q-73 0 -116 59q-40 54 -40 129q0 104 71 194q76 95 199 128l42 -62q-86 -25 -142 -92t-56 -135q0 -47 16.5 -68t59.5 -21q42 0 66 40q19 33 19 77q0 11 -8 87l113 30q0 -116 7 -170q11 -91 49 -162zM367 553l-116 45
l-127 -45v41l127 83l116 -83v-41z" />
    <glyph glyph-name="atilde" unicode="&#xe3;" horiz-adv-x="477" 
d="M455 26l-83 -37q-21 32 -49 111q-27 -108 -148 -108q-73 0 -116 59q-40 54 -40 129q0 104 71 194q76 95 199 128l42 -62q-86 -25 -142 -92t-56 -135q0 -47 16.5 -68t59.5 -21q42 0 66 40q19 33 19 77q0 11 -8 87l113 30q0 -116 7 -170q11 -91 49 -162zM354 552
q-46 -19 -62 -19q-38 0 -71 46q-22 30 -42 30q-24 0 -63 -47q-1 20 -1 38t1 34q10 8 30 22q26 17 42 17q7 0 12 -3q20 4 42.5 -30.5t45.5 -34.5q26 0 66 22v-75z" />
    <glyph glyph-name="adieresis" unicode="&#xe4;" horiz-adv-x="471" 
d="M455 26l-83 -37q-21 32 -49 111q-27 -108 -148 -108q-73 0 -116 59q-40 54 -40 129q0 104 71 194q76 95 199 128l42 -62q-86 -25 -142 -92t-56 -135q0 -47 16.5 -68t59.5 -21q42 0 66 40q19 33 19 77q0 11 -8 87l113 30q0 -116 7 -170q11 -91 49 -162zM349 593
q0 -16 -11.5 -27.5t-27.5 -11.5t-27.5 11.5t-11.5 27.5t11.5 27.5t27.5 11.5t27.5 -11.5t11.5 -27.5zM222 596q0 -16 -11.5 -27.5t-27.5 -11.5t-27.5 11.5t-11.5 27.5t11.5 27.5t27.5 11.5t27.5 -11.5t11.5 -27.5z" />
    <glyph glyph-name="aring" unicode="&#xe5;" horiz-adv-x="470" 
d="M455 26l-83 -37q-21 32 -49 111q-27 -108 -148 -108q-73 0 -116 59q-40 54 -40 129q0 104 71 194q76 95 199 128l42 -62q-86 -25 -142 -92t-56 -135q0 -47 16.5 -68t59.5 -21q42 0 66 40q19 33 19 77q0 11 -8 87l113 30q0 -116 7 -170q11 -91 49 -162zM326 626
q0 -28 -19.5 -47.5t-47.5 -19.5q-27 0 -46.5 19.5t-19.5 47.5q0 27 19.5 46.5t46.5 19.5q28 0 47.5 -19.5t19.5 -46.5zM299 626q0 16 -11.5 28t-28.5 12q-16 0 -27.5 -12t-11.5 -28q0 -17 11.5 -28.5t27.5 -11.5q17 0 28.5 11.5t11.5 28.5z" />
    <glyph glyph-name="ae" unicode="&#xe6;" horiz-adv-x="861" 
d="M830 112q-98 -120 -257 -120q-53 0 -78 9q-31 12 -60 49l-59 -26q-21 32 -49 110q-3 -74 -36.5 -108t-106.5 -34q-78 0 -123 56q-41 52 -41 132q0 94 68 187q61 84 151 134l49 -55q-59 -42 -102 -102q-52 -71 -52 -131q0 -89 86 -89q43 0 63 53q14 37 14 89q0 29 -7 97
l112 29l1 -67q30 74 101 126q75 55 155 55q75 0 112 -37.5t32 -103.5q-4 -54 -108 -154l-81 68q38 29 53 46q25 30 25 64q0 30 -36 30q-65 0 -122 -100q-52 -89 -52 -160q0 -93 74 -93q51 0 101 40q23 19 78 80z" />
    <glyph glyph-name="ccedilla" unicode="&#xe7;" horiz-adv-x="442" 
d="M294 -132q0 -35 -44 -68h-49q35 27 35 54q0 39 -43 39q-10 12 -10 29q0 10 6 24h60q-9 -15 -9 -27q0 -13 27 -23.5t27 -27.5zM413 140q-47 -113 -110 -135q-40 -14 -75 -14q-86 0 -147 75q-45 56 -45 151q0 67 23 116q21 46 72 94q58 55 130 94l43 -79q-89 -65 -119 -101
q-40 -47 -40 -107q0 -39 20 -72q23 -38 59 -38t67 32q6 6 36 44z" />
    <glyph glyph-name="egrave" unicode="&#xe8;" horiz-adv-x="497" 
d="M355 567l-207 67v102l207 -115v-54zM467 98q-100 -123 -202 -123q-21 0 -37 2q-52 6 -84 24.5t-68 59.5q-52 60 -59 141q-1 12 -1 31q0 59 34 128q80 162 216 162q103 0 153 -81q22 -36 22 -61q0 -23 -1 -46q-5 -19 -37 -64q-14 -20 -71 -75l-91 73q29 23 58 62
q33 46 33 75t-39 29q-38 0 -75 -39q-18 -19 -53 -72q-46 -70 -46 -149q0 -103 95 -103q69 0 123 60l35 39z" />
    <glyph glyph-name="eacute" unicode="&#xe9;" horiz-adv-x="500" 
d="M148 555l207 67v102l-207 -115v-54zM467 98q-100 -123 -202 -123q-21 0 -37 2q-52 6 -84 24.5t-68 59.5q-52 60 -59 141q-1 12 -1 31q0 59 34 128q80 162 216 162q103 0 153 -81q22 -36 22 -61q0 -23 -1 -46q-5 -19 -37 -64q-14 -20 -71 -75l-91 73q29 23 58 62
q33 46 33 75t-39 29q-38 0 -75 -39q-18 -19 -53 -72q-46 -70 -46 -149q0 -103 95 -103q69 0 123 60l35 39z" />
    <glyph glyph-name="ecircumflex" unicode="&#xea;" horiz-adv-x="502" 
d="M367 563l-116 45l-127 -45v41l127 83l116 -83v-41zM467 98q-100 -123 -202 -123q-21 0 -37 2q-52 6 -84 24.5t-68 59.5q-52 60 -59 141q-1 12 -1 31q0 59 34 128q80 162 216 162q103 0 153 -81q22 -36 22 -61q0 -23 -1 -46q-5 -19 -37 -64q-14 -20 -71 -75l-91 73
q29 23 58 62q33 46 33 75t-39 29q-38 0 -75 -39q-18 -19 -53 -72q-46 -70 -46 -149q0 -103 95 -103q69 0 123 60l35 39z" />
    <glyph glyph-name="edieresis" unicode="&#xeb;" horiz-adv-x="507" 
d="M467 98q-100 -123 -202 -123q-21 0 -37 2q-52 6 -84 24.5t-68 59.5q-52 60 -59 141q-1 12 -1 31q0 59 34 128q80 162 216 162q103 0 153 -81q22 -36 22 -61q0 -23 -1 -46q-5 -19 -37 -64q-14 -20 -71 -75l-91 73q29 23 58 62q33 46 33 75t-39 29q-38 0 -75 -39
q-18 -19 -53 -72q-46 -70 -46 -149q0 -103 95 -103q69 0 123 60l35 39zM222 596q0 -16 -11.5 -27.5t-27.5 -11.5t-27.5 11.5t-11.5 27.5t11.5 27.5t27.5 11.5t27.5 -11.5t11.5 -27.5zM349 593q0 -16 -11.5 -27.5t-27.5 -11.5t-27.5 11.5t-11.5 27.5t11.5 27.5t27.5 11.5
t27.5 -11.5t11.5 -27.5z" />
    <glyph glyph-name="igrave" unicode="&#xec;" horiz-adv-x="240" 
d="M227 539l-207 67v102l207 -115v-54zM207 465q-39 -87 -39 -230q0 -120 27 -219l-82 -26q-69 133 -69 308q0 116 35 203z" />
    <glyph glyph-name="iacute" unicode="&#xed;" horiz-adv-x="291" 
d="M35 542l207 67v102l-207 -115v-54zM207 465q-39 -87 -39 -230q0 -120 27 -219l-82 -26q-69 133 -69 308q0 116 35 203z" />
    <glyph glyph-name="icircumflex" unicode="&#xee;" horiz-adv-x="248" 
d="M247 547l-115 45l-127 -45v41l127 83l115 -83v-41zM197 465q-39 -87 -39 -230q0 -120 27 -219l-82 -26q-69 133 -69 308q0 116 35 203z" />
    <glyph glyph-name="idieresis" unicode="&#xef;" horiz-adv-x="247" 
d="M197 465q-39 -87 -39 -230q0 -120 27 -219l-82 -26q-69 133 -69 308q0 116 35 203zM104 597q0 -16 -11.5 -27.5t-27.5 -11.5t-27.5 11.5t-11.5 27.5t11.5 27.5t27.5 11.5t27.5 -11.5t11.5 -27.5zM231 594q0 -16 -11.5 -27.5t-27.5 -11.5t-27.5 11.5t-11.5 27.5t11.5 27.5
t27.5 11.5t27.5 -11.5t11.5 -27.5z" />
    <glyph glyph-name="eth" unicode="&#xf0;" horiz-adv-x="561" 
d="M507 301q1 -313 -230 -313q-99 0 -164 57q-69 60 -69 158q0 141 160 269l79 -79q-119 -90 -119 -177q0 -46 28 -76t73 -30q77 0 112 101q23 69 23 166q0 110 -48 216q-22 -6 -67 -16l-29 59q12 8 56 32q-27 41 -61 79l53 53q43 -41 79 -98q28 13 71 32l42 -104l-65 -16
q75 -164 76 -313z" />
    <glyph glyph-name="ntilde" unicode="&#xf1;" horiz-adv-x="511" 
d="M374 586q-46 -19 -62 -19q-38 0 -71 46q-22 30 -42 30q-24 0 -63 -47q-1 20 -1 38t1 34q10 8 30 22q26 17 42 17q7 0 12 -3q20 4 42.5 -30.5t45.5 -34.5q26 0 66 22v-75zM470 282q0 -78 -31 -149q-25 -56 -81 -130l-91 65q82 109 82 209q0 34 -11 65q-22 62 -76 62
q-33 0 -55 -28q-18 -25 -24 -60q-6 -38 -6 -123v-164l-111 -27v197q0 183 -45 270l84 37q18 -27 25 -43q2 -6 23 -64q41 104 149 104q70 0 123 -68q45 -57 45 -153z" />
    <glyph glyph-name="ograve" unicode="&#xf2;" horiz-adv-x="510" 
d="M339 548l-207 67v102l207 -115v-54zM470 232q0 -233 -98 -233q-104 0 -159 184l84 31q23 -87 63 -87q23 0 30 38q5 27 5 54q0 73 -34 134q-42 75 -106 75q-51 0 -75 -38q-41 -64 -41 -141q0 -104 78 -189l-21 -71q-34 12 -65 39q-100 88 -100 240q0 189 135 238
q28 10 62 10q63 0 116 -37q98 -68 121 -200q5 -28 5 -47z" />
    <glyph glyph-name="oacute" unicode="&#xf3;" horiz-adv-x="512" 
d="M135 548l207 67v102l-207 -115v-54zM470 232q0 -233 -98 -233q-104 0 -159 184l84 31q23 -87 63 -87q23 0 30 38q5 27 5 54q0 73 -34 134q-42 75 -106 75q-51 0 -75 -38q-41 -64 -41 -141q0 -104 78 -189l-21 -71q-34 12 -65 39q-100 88 -100 240q0 189 135 238
q28 10 62 10q63 0 116 -37q98 -68 121 -200q5 -28 5 -47z" />
    <glyph glyph-name="ocircumflex" unicode="&#xf4;" horiz-adv-x="513" 
d="M363 562l-116 45l-127 -45v41l127 83l116 -83v-41zM470 232q0 -233 -98 -233q-104 0 -159 184l84 31q23 -87 63 -87q23 0 30 38q5 27 5 54q0 73 -34 134q-42 75 -106 75q-51 0 -75 -38q-41 -64 -41 -141q0 -104 78 -189l-21 -71q-34 12 -65 39q-100 88 -100 240
q0 189 135 238q28 10 62 10q63 0 116 -37q98 -68 121 -200q5 -28 5 -47z" />
    <glyph glyph-name="otilde" unicode="&#xf5;" horiz-adv-x="512" 
d="M365 582q-46 -19 -62 -19q-38 0 -71 46q-22 30 -42 30q-24 0 -63 -47q-1 20 -1 38t1 34q10 8 30 22q26 17 42 17q7 0 12 -3q20 4 42.5 -30.5t45.5 -34.5q26 0 66 22v-75zM470 232q0 -233 -98 -233q-104 0 -159 184l84 31q23 -87 63 -87q23 0 30 38q5 27 5 54
q0 73 -34 134q-42 75 -106 75q-51 0 -75 -38q-41 -64 -41 -141q0 -104 78 -189l-21 -71q-34 12 -65 39q-100 88 -100 240q0 189 135 238q28 10 62 10q63 0 116 -37q98 -68 121 -200q5 -28 5 -47z" />
    <glyph glyph-name="odieresis" unicode="&#xf6;" horiz-adv-x="527" 
d="M470 232q0 -233 -98 -233q-104 0 -159 184l84 31q23 -87 63 -87q23 0 30 38q5 27 5 54q0 73 -34 134q-42 75 -106 75q-51 0 -75 -38q-41 -64 -41 -141q0 -104 78 -189l-21 -71q-34 12 -65 39q-100 88 -100 240q0 189 135 238q28 10 62 10q63 0 116 -37q98 -68 121 -200
q5 -28 5 -47zM224 616q0 -16 -11.5 -27.5t-27.5 -11.5t-27.5 11.5t-11.5 27.5t11.5 27.5t27.5 11.5t27.5 -11.5t11.5 -27.5zM351 613q0 -16 -11.5 -27.5t-27.5 -11.5t-27.5 11.5t-11.5 27.5t11.5 27.5t27.5 11.5t27.5 -11.5t11.5 -27.5z" />
    <glyph glyph-name="divide" unicode="&#xf7;" horiz-adv-x="420" 
d="M46 359h332v-123h-332v123zM278 129q0 -27 -19 -46t-46 -19t-46 19t-19 46t19 46t46 19t46 -19t19 -46zM278 465q0 -27 -19 -46t-46 -19t-46 19t-19 46t19 46t46 19t46 -19t19 -46z" />
    <glyph glyph-name="oslash" unicode="&#xf8;" horiz-adv-x="530" 
d="M346 379l-42 -62q-20 -35 -20 -73q0 -14 3 -30q5 -29 25 -63q24 -40 48 -40q21 0 33 51q8 36 8 67q0 84 -55 150zM467 238q0 -81 -26 -151q-31 -87 -84 -87q-59 0 -104 62q-40 53 -50 121q-4 25 -4 47q0 59 30 109q6 10 61 82q-17 7 -35 7q-59 0 -90 -63
q-26 -51 -26 -116q0 -104 78 -189l-21 -71q-80 27 -125 113q-40 75 -40 166q0 103 46 170q53 78 151 78q63 0 115 -32q10 10 27 29h77q-15 -19 -55 -69q75 -81 75 -206z" />
    <glyph glyph-name="ugrave" unicode="&#xf9;" horiz-adv-x="523" 
d="M384 539l-207 67v102l207 -115v-54zM486 29l-85 -37q-16 25 -24 43q-4 9 -24 64q-41 -104 -149 -104q-80 0 -127 73q-41 64 -41 148q0 78 31 148q25 57 81 130l97 -80q-87 -115 -87 -201q0 -29 10 -57q22 -62 76 -62q33 0 55 29q18 23 24 59q7 41 7 123v164l111 27v-75
q-1 -94 -1 -122q0 -183 46 -270z" />
    <glyph glyph-name="uacute" unicode="&#xfa;" horiz-adv-x="518" 
d="M172 545l207 67v102l-207 -115v-54zM486 29l-85 -37q-16 25 -24 43q-4 9 -24 64q-41 -104 -149 -104q-80 0 -127 73q-41 64 -41 148q0 78 31 148q25 57 81 130l97 -80q-87 -115 -87 -201q0 -29 10 -57q22 -62 76 -62q33 0 55 29q18 23 24 59q7 41 7 123v164l111 27v-75
q-1 -94 -1 -122q0 -183 46 -270z" />
    <glyph glyph-name="ucircumflex" unicode="&#xfb;" horiz-adv-x="516" 
d="M381 544l-115 45l-127 -45v41l127 83l115 -83v-41zM486 29l-85 -37q-16 25 -24 43q-4 9 -24 64q-41 -104 -149 -104q-80 0 -127 73q-41 64 -41 148q0 78 31 148q25 57 81 130l97 -80q-87 -115 -87 -201q0 -29 10 -57q22 -62 76 -62q33 0 55 29q18 23 24 59q7 41 7 123
v164l111 27v-75q-1 -94 -1 -122q0 -183 46 -270z" />
    <glyph glyph-name="udieresis" unicode="&#xfc;" horiz-adv-x="515" 
d="M486 29l-85 -37q-16 25 -24 43q-4 9 -24 64q-41 -104 -149 -104q-80 0 -127 73q-41 64 -41 148q0 78 31 148q25 57 81 130l97 -80q-87 -115 -87 -201q0 -29 10 -57q22 -62 76 -62q33 0 55 29q18 23 24 59q7 41 7 123v164l111 27v-75q-1 -94 -1 -122q0 -183 46 -270z
M249 589q0 -16 -11.5 -27.5t-27.5 -11.5t-27.5 11.5t-11.5 27.5t11.5 27.5t27.5 11.5t27.5 -11.5t11.5 -27.5zM376 586q0 -16 -11.5 -27.5t-27.5 -11.5t-27.5 11.5t-11.5 27.5t11.5 27.5t27.5 11.5t27.5 -11.5t11.5 -27.5z" />
    <glyph glyph-name="yacute" unicode="&#xfd;" horiz-adv-x="503" 
d="M465 87q0 -115 -78 -188q-58 -53 -184 -99l-33 61q99 48 133 79q58 54 58 140q0 48 -31 138q-3 7 -52 136l119 50q68 -204 68 -317zM280 86q-72 -57 -142 -57q-54 0 -85.5 35.5t-31.5 90.5q0 62 45 182q36 94 79 173l119 -48q-136 -193 -135 -278q0 -40 34 -40t105 49z
M168 539l207 67v102l-207 -115v-54z" />
    <glyph glyph-name="thorn" unicode="&#xfe;" horiz-adv-x="403" 
d="M26 411q15 174 53 389h70q-11 -78 -29 -297q32 15 74 15q90 0 136 -69q40 -59 40 -148q0 -147 -141 -260l-55 92q59 61 73 85q28 46 28 118q0 43 -20 69q-23 30 -64 30q-86 0 -86 -169q0 -194 140 -441l-133 -38q-90 274 -90 469q0 121 4 155z" />
    <glyph glyph-name="ydieresis" unicode="&#xff;" horiz-adv-x="500" 
d="M465 87q0 -115 -78 -188q-58 -53 -184 -99l-33 61q99 48 133 79q58 54 58 140q0 48 -31 138q-3 7 -52 136l119 50q68 -204 68 -317zM280 86q-72 -57 -142 -57q-54 0 -85.5 35.5t-31.5 90.5q0 62 45 182q36 94 79 173l119 -48q-136 -193 -135 -278q0 -40 34 -40t105 49z
M354 583q0 -16 -11.5 -27.5t-27.5 -11.5t-27.5 11.5t-11.5 27.5t11.5 27.5t27.5 11.5t27.5 -11.5t11.5 -27.5zM227 586q0 -16 -11.5 -27.5t-27.5 -11.5t-27.5 11.5t-11.5 27.5t11.5 27.5t27.5 11.5t27.5 -11.5t11.5 -27.5z" />
    <glyph glyph-name="Aogonek" unicode="&#x104;" horiz-adv-x="671" 
d="M508 483v98h-291v-98h291zM505 -202q-47 0 -72.5 30t-25.5 78v94h-1v120q23 0 49 1q33 0 43 13.5t10 49.5v176h-292v-360h-122v360h-51v123h50v98h-49v121h251v98h125v-98h210v-599q0 -59 -35 -83q-29 -20 -89 -20h-23v-65q0 -28 22 -51q13 -13 40 -13q37 0 71 22v-67
q-40 -28 -111 -28z" />
    <glyph glyph-name="aogonek" unicode="&#x105;" horiz-adv-x="479" 
d="M340 -102q0 -21 14 -26q5 -1 27 -1q37 0 71 22v-67q-41 -28 -98 -28q-52 0 -77.5 21.5t-25.5 64.5q0 68 103 137q-14 32 -31 79q-27 -108 -148 -108q-70 0 -115 59q-41 55 -41 129q0 104 71 194q76 95 199 128l42 -62q-86 -25 -142 -92t-56 -135q0 -89 76 -89q42 0 66 40
q19 33 19 77q0 51 -8 107l113 30q0 -121 7 -180q11 -101 49 -172l-8 -5l-60 -40q-47 -39 -47 -83z" />
    <glyph glyph-name="Cacute" unicode="&#x106;" horiz-adv-x="584" 
d="M546 0h-171q-152 0 -231 81q-100 100 -100 333v288h211v98h119v-98h172v-121h-379v-142q0 -146 37 -218q53 -102 192 -102h150v-119zM216 837l207 67v102l-207 -115v-54z" />
    <glyph glyph-name="cacute" unicode="&#x107;" horiz-adv-x="434" 
d="M401 140q-28 -73 -67 -108q-45 -41 -118 -41q-90 0 -143 70q-49 64 -49 156q0 182 225 304l37 -60q-153 -113 -153 -227q0 -38 23 -72q25 -39 62 -39q55 0 97 77zM120 573l207 67v102l-207 -115v-54z" />
    <glyph glyph-name="Ccaron" unicode="&#x10c;" horiz-adv-x="584" 
d="M546 0h-171q-152 0 -231 81q-100 100 -100 333v288h211v98h119v-98h172v-121h-379v-142q0 -146 37 -218q53 -102 192 -102h150v-119zM432 913l-115 -83l-127 83v41l127 -45l115 45v-41z" />
    <glyph glyph-name="ccaron" unicode="&#x10d;" horiz-adv-x="434" 
d="M401 140q-28 -73 -67 -108q-45 -41 -118 -41q-90 0 -143 70q-49 64 -49 156q0 182 225 304l37 -60q-153 -113 -153 -227q0 -38 23 -72q25 -39 62 -39q55 0 97 77zM340 643l-115 -82l-127 82v42l127 -45l115 45v-42z" />
    <glyph glyph-name="Edotaccent" unicode="&#x116;" horiz-adv-x="668" 
d="M628 0h-231q-101 0 -185 60q-110 80 -110 231v69h-62v123h62v98h-62v121h588v-121h-401v-98h300v-123h-300v-53q0 -76 49 -127q57 -61 165 -61l187 1v-120zM405 842q0 -27 -19 -46t-46 -19t-46 19t-19 46t19 46t46 19t46 -19t19 -46z" />
    <glyph glyph-name="edotaccent" unicode="&#x117;" horiz-adv-x="516" 
d="M479 98q-39 -48 -98 -79q-63 -34 -124 -34q-109 0 -171 71q-58 67 -58 177q0 103 73 194q77 96 177 96q74 0 122 -36q53 -40 53 -106q0 -57 -32 -104q-17 -23 -77 -81l-91 73q31 24 57 59q32 42 32 71q0 36 -37 36q-64 0 -121 -96q-50 -87 -50 -157q0 -103 95 -103
q50 0 88 27q22 15 67 65zM340 652q0 -27 -19 -46t-46 -19t-46 19t-19 46t19 46t46 19t46 -19t19 -46z" />
    <glyph glyph-name="Eogonek" unicode="&#x118;" horiz-adv-x="668" 
d="M518 -202q-48 0 -73 30t-25 78l-1 94h-22q-101 0 -185 60q-110 80 -110 231v69h-62v123h62v98h-62v121h588v-121h-401v-98h300v-123h-300v-53q0 -76 49 -128q57 -61 165 -60l187 1v-120h-132l-1 -65q0 -28 23 -51q13 -13 40 -13q37 0 71 22v-67q-40 -28 -111 -28z" />
    <glyph glyph-name="eogonek" unicode="&#x119;" horiz-adv-x="516" 
d="M354 -202q-43 0 -70 22t-27 64q0 55 85 107q10 6 20 19q-54 -25 -105 -25q-109 0 -171 71q-58 67 -58 177q0 103 73 194q77 96 177 96q74 0 122 -36q53 -40 53 -106q0 -57 -32 -104q-17 -23 -77 -81l-91 73q31 24 57 59q32 42 32 71q0 36 -37 36q-64 0 -121 -96
q-50 -87 -50 -157q0 -103 95 -103q50 0 88 27q22 15 67 65l95 -73q-21 -58 -35 -82q-8 -12 -32 -39q-4 -5 -48 -38q-27 -21 -27 -43q0 -28 38 -28q39 0 77 25v-67q-41 -28 -98 -28z" />
    <glyph glyph-name="Gbreve" unicode="&#x11e;" horiz-adv-x="576" 
d="M531 0h-128q-365 0 -365 372v330h211v97h121v-97h161v-121h-366v-185q0 -126 46 -193q36 -52 100 -71q23 -6 97 -13v272h123v-391zM427 940q-43 -85 -121 -83q-75 2 -113 83v42q53 -69 116 -67q76 2 118 67v-42z" />
    <glyph glyph-name="gbreve" unicode="&#x11f;" horiz-adv-x="456" 
d="M416 171q0 -181 -51 -271q-64 -111 -216 -111q-42 0 -117 19l43 114q51 -13 71 -13q113 0 152 89q26 57 26 183q0 260 -104 260q-50 0 -76 -53q-21 -43 -21 -100q0 -102 140 -102l-42 -105q-81 0 -135 47q-59 51 -59 137q0 94 46 164q53 80 142 80q110 0 158 -91
q43 -81 43 -247zM336 655q-43 -85 -121 -83q-75 2 -113 83v42q53 -69 116 -67q76 2 118 67v-42z" />
    <glyph glyph-name="Iogonek" unicode="&#x12e;" horiz-adv-x="381" 
d="M228 -196q-47 0 -72.5 30t-25.5 79v87h-74v119h72v240h-72v124h72v98h-72v121h273v-121h-78v-98h78v-123h-77v-241h77v-119h-123v-58q0 -28 22 -51q13 -14 41 -14q26 0 60 23v-67q-40 -29 -101 -29z" />
    <glyph glyph-name="iogonek" unicode="&#x12f;" horiz-adv-x="237" 
d="M212 636q0 -27 -19 -46t-46 -19t-46 19t-19 46t19 46t46 19t46 -19t19 -46zM99 -104q0 -28 38 -28t76 25v-67q-40 -28 -97 -28q-43 0 -70 22t-27 64q0 23 24 56q9 14 49 59q-64 130 -64 299q0 116 35 203l128 -36q-39 -87 -39 -230q0 -120 27 -219q-80 -67 -80 -120z" />
    <glyph glyph-name="Idotaccent" unicode="&#x130;" horiz-adv-x="381" 
d="M329 0h-273v119h72v240h-72v124h72v98h-72v121h273v-121h-78v-98h78v-123h-77v-241h77v-119zM257 842q0 -27 -18.5 -46t-46.5 -19q-27 0 -46 19t-19 46t19 46t46 19q28 0 46.5 -19t18.5 -46z" />
    <glyph glyph-name="dotlessi" unicode="&#x131;" horiz-adv-x="248" 
d="M197 465q-39 -87 -39 -230q0 -120 27 -219l-82 -26q-69 133 -69 308q0 116 35 203z" />
    <glyph glyph-name="Lslash" unicode="&#x141;" horiz-adv-x="582" 
d="M566 146q-34 -76 -76 -110q-46 -36 -115 -36h-323v361h-51v124h51v217h125v-217h60v-124h-60v-242h181q71 0 107 80z" />
    <glyph glyph-name="lslash" unicode="&#x142;" horiz-adv-x="254" 
d="M296 409q0 -22 -9 -45l-75 5q-25 -157 -112 -378l-65 17q12 73 37 217q11 59 16 151h-42l-9 65q21 3 53 8q1 15 1 30q2 135 -13 279l146 52q7 -73 7 -178q0 -86 -7 -162q29 5 55 6q17 -37 17 -67z" />
    <glyph glyph-name="OE" unicode="&#x152;" horiz-adv-x="1030" 
d="M1013 581h-401v-98h300v-123h-300q0 -68 0.5 -129t57.5 -94q22 -13 37.5 -16t57.5 -3h242v-118h-292q-70 0 -114 48v-48h-551l-1 702h212v98h123v-98h629v-121zM475 120v461h-302l1 -461h301z" />
    <glyph glyph-name="oe" unicode="&#x153;" horiz-adv-x="887" 
d="M848 92q-100 -123 -202 -123q-68 0 -111.5 21.5t-85.5 74.5q-25 -66 -77 -66q-104 0 -159 184l84 31q23 -87 63 -87q35 0 35 92q0 73 -33 135q-40 74 -107 74q-59 0 -90 -63q-26 -50 -26 -116q0 -104 78 -189l-21 -71q-80 27 -125 113q-40 75 -40 166q0 103 46 170
q53 78 151 78q67 0 125 -44q54 -40 85 -104q79 149 209 149q62 0 116 -39q59 -43 59 -103q0 -57 -32 -104q-17 -23 -77 -81l-91 73q32 24 59 60q33 45 32 77q-1 29 -39 29q-64 0 -122 -100q-52 -90 -52 -160q0 -104 95 -104q49 0 90 31q20 15 68 69z" />
    <glyph glyph-name="Scedilla" unicode="&#x15e;" horiz-adv-x="631" 
d="M592 581h-321q-57 0 -81.5 -21.5t-24.5 -76.5h426v-193q0 -150 -107 -226q-94 -67 -253 -67q-27 0 -93 2q-60 1 -94 1v119h73.5h70.5q281 0 282 195l-1 47h-425v148q0 87 57 142q54 51 133 51h358v-121zM414 -132q0 -35 -44 -68h-49q35 27 35 54q0 39 -43 39
q-10 12 -10 29q0 10 6 24h60q-9 -15 -9 -27q0 -13 27 -23.5t27 -27.5z" />
    <glyph glyph-name="Scaron" unicode="&#x160;" horiz-adv-x="631" 
d="M466 839l-115 -83l-127 83v42l127 -45l115 45v-42zM592 581h-321q-57 0 -81.5 -21.5t-24.5 -76.5h426v-193q0 -150 -107 -226q-94 -67 -253 -67q-27 0 -93 2q-60 1 -94 1v119h73.5h70.5q281 0 282 195l-1 47h-425v148q0 87 57 142q54 51 133 51h358v-121z" />
    <glyph glyph-name="scaron" unicode="&#x161;" horiz-adv-x="382" 
d="M302 703l-116 -83l-127 83v41l127 -45l116 45v-41zM354 172q0 -38 -46 -102q-16 -23 -75 -91l-96 81q99 81 99 114q0 42 -55 64q-51 20 -101 39q-55 31 -55 94q0 49 39 106q17 25 74 89l96 -82q-87 -67 -87 -112q0 -36 54 -64q50 -25 99 -49q54 -35 54 -87z" />
    <glyph glyph-name="Umacron" unicode="&#x16a;" horiz-adv-x="681" 
d="M625 0h-575v702h121v-582h331v582h123v-702zM207 822h265v-60h-265v60z" />
    <glyph glyph-name="umacron" unicode="&#x16b;" horiz-adv-x="495" 
d="M474 29l-85 -37q-22 35 -48 107q-41 -104 -149 -104q-80 0 -127 73q-41 63 -41 148q0 133 112 278l97 -80q-87 -115 -87 -201q0 -46 20 -79q24 -40 66 -40q91 0 91 236q0 38 -2.5 87t-2.5 52l110 27v-197q0 -183 46 -270zM114 624h265v-60h-265v60z" />
    <glyph glyph-name="Uogonek" unicode="&#x172;" horiz-adv-x="681" 
d="M345 -202q-47 0 -72.5 30t-25.5 78v94h-197l1 702h120v-582h331v582h123v-702h-302v-65q0 -28 22 -51q13 -13 40 -13q37 0 71 22v-67q-40 -28 -111 -28z" />
    <glyph glyph-name="uogonek" unicode="&#x173;" horiz-adv-x="495" 
d="M364 -204q-53 0 -79.5 22.5t-26.5 58.5q0 23 52.5 79t52.5 82q0 6 -2 12q-6 12 -20 49q-41 -104 -149 -104q-80 0 -127 73q-41 63 -41 148q0 133 112 278l97 -80q-87 -115 -87 -201q0 -46 20 -79q24 -40 66 -40q91 0 91 236q0 38 -2.5 87t-2.5 52l110 27v-197
q0 -183 46 -270q-12 -3 -20 -9q-19 -15 -46 -48q-30 -36 -44 -50q-23 -21 -23 -32q0 -6 5 -10q13 -14 40 -14q37 0 75 25v-67q-40 -28 -97 -28z" />
    <glyph glyph-name="Ydieresis" unicode="&#x178;" horiz-adv-x="598" 
d="M371 393l-95 -77l-246 332l100 73zM547 388q0 -183 -35 -243q-40 -69 -94 -101q-73 -44 -192 -44h-178v119h180q60 0 98 20q45 23 71 67q17 29 20 60q7 69 7 74v362h123v-314zM413 795q0 -16 -11.5 -27.5t-27.5 -11.5t-27.5 11.5t-11.5 27.5t11.5 27.5t27.5 11.5
t27.5 -11.5t11.5 -27.5zM286 798q0 -16 -11.5 -27.5t-27.5 -11.5t-27.5 11.5t-11.5 27.5t11.5 27.5t27.5 11.5t27.5 -11.5t11.5 -27.5z" />
    <glyph glyph-name="Zcaron" unicode="&#x17d;" horiz-adv-x="637" 
d="M601 0h-128v56q1 29 -4 41q-6 17 -30 36l-130 104l-199 -253l-94 78l381 519h-342v121h497v-117l-171 -243q50 -37 153 -117q67 -53 67 -161v-64zM440 838l-115 -82l-127 82v42l127 -45l115 45v-42z" />
    <glyph glyph-name="zcaron" unicode="&#x17e;" horiz-adv-x="424" 
d="M307 666l-116 -83l-127 83v41l127 -45l116 45v-41zM386 67q0 -135 -138 -267l-82 34q47 45 78 103t32 104q1 41 -25 66q-24 22 -59 22q-20 0 -38 -8l-57 73q56 39 116.5 106.5t61.5 93.5q0 47 -49 47q-53 0 -138 -75l-79 86q63 40 104 57q61 25 125 25q77 0 115 -42
q29 -31 30 -78q1 -42 -53 -112q-42 -54 -93 -97q69 6 111 -39q38 -40 38 -99z" />
    <glyph glyph-name="florin" unicode="&#x192;" horiz-adv-x="374" 
d="M128 35q17 39 38 140q23 112 39 209q37 16 57 20l52 133q-53 -12 -97 -35q6 36 22 110q10 37 33 64q28 33 62 33q16 0 53 -10l45 102q-53 10 -58 10q-175 0 -234 -222q-8 -43 -27 -140l-1 -20l-12 -91q-7 -71 -29 -212q-12 -56 -16 -66q-19 -55 -54 -78q-31 -20 -68 -20
q-11 0 -21 2l-55 -72q21 -4 42 -4q62 0 128.5 34t100.5 113z" />
    <glyph glyph-name="circumflex" unicode="&#x2c6;" horiz-adv-x="430" 
d="M367 573l-116 45l-127 -45v41l127 83l116 -83v-41z" />
    <glyph glyph-name="caron" unicode="&#x2c7;" horiz-adv-x="430" 
d="M367 656l-116 -83l-127 83v41l127 -45l116 45v-41z" />
    <glyph glyph-name="breve" unicode="&#x2d8;" horiz-adv-x="430" 
d="M367 655q-43 -85 -121 -83q-75 2 -113 83v42q53 -69 116 -67q76 2 118 67v-42z" />
    <glyph glyph-name="dotaccent" unicode="&#x2d9;" horiz-adv-x="248" 
d="M218 636q0 -27 -19 -46t-46 -19t-46 19t-19 46t19 46t46 19t46 -19t19 -46z" />
    <glyph glyph-name="ring" unicode="&#x2da;" horiz-adv-x="389" 
d="M332 635q0 -28 -19.5 -47.5t-46.5 -19.5q-28 0 -47.5 19.5t-19.5 47.5q0 27 19.5 46.5t47.5 19.5q27 0 46.5 -19.5t19.5 -46.5zM305 634q0 17 -11.5 28.5t-28.5 11.5q-16 0 -27.5 -11.5t-11.5 -28.5q0 -16 11.5 -27.5t27.5 -11.5q17 0 28.5 11.5t11.5 27.5z" />
    <glyph glyph-name="ogonek" unicode="&#x2db;" horiz-adv-x="671" 
d="M505 -202q-47 0 -72.5 30t-25.5 78v97h76v-68q0 -28 22 -51q13 -13 40 -13q37 0 71 22v-67q-40 -28 -111 -28z" />
    <glyph glyph-name="tilde" unicode="&#x2dc;" horiz-adv-x="323" 
d="M268 658q-46 -19 -62 -19q-38 0 -71 46q-22 30 -42 30q-24 0 -63 -47q-1 20 -1 38t1 34q10 8 30 22q26 17 42 17q7 0 12 -3q20 4 42.5 -30.5t45.5 -34.5q26 0 66 22v-75z" />
    <glyph glyph-name="hungarumlaut" unicode="&#x2dd;" horiz-adv-x="224" 
d="M111 731q-12 -13 -23 -13q-17 0 -17 23q0 27 23 50q13 13 24 13q16 0 16 -23q0 -27 -23 -50zM229 728q-13 -13 -24 -13q-16 0 -16 23q0 27 23 50q12 13 23 13q17 0 17 -23q0 -27 -23 -50z" />
    <glyph glyph-name="Delta" unicode="&#x394;" horiz-adv-x="530" 
d="M7 0l188 581h140l187 -581h-515zM264 411l-95 -294h191z" />
    <glyph glyph-name="Delta" unicode="&#x2206;" horiz-adv-x="530" 
d="M7 0l188 581h140l187 -581h-515zM264 411l-95 -294h191z" />
    <glyph glyph-name="Omega" unicode="&#x3a9;" horiz-adv-x="645" 
d="M407 800h-124v-100q-84 -13 -153 -91q-78 -87 -78 -197q0 -134 105 -226v-28q0 -13 -13 -24.5t-30 -11.5h-31v-119h59q104 0 133 87q7 24 7 50v121q-47 16 -73.5 57.5t-26.5 92.5q0 69 48.5 117.5t116.5 48.5q69 0 117.5 -48.5t48.5 -117.5q0 -50 -30 -94t-77 -60v-135
q0 -29 14 -54q37 -68 125 -68h59v119q-74 -6 -75 45v15q53 40 83.5 101t30.5 126q0 117 -77 204q-70 79 -159 90v100z" />
    <glyph glyph-name="Omega" unicode="&#x2126;" horiz-adv-x="645" 
d="M407 800h-124v-100q-84 -13 -153 -91q-78 -87 -78 -197q0 -134 105 -226v-28q0 -13 -13 -24.5t-30 -11.5h-31v-119h59q104 0 133 87q7 24 7 50v121q-47 16 -73.5 57.5t-26.5 92.5q0 69 48.5 117.5t116.5 48.5q69 0 117.5 -48.5t48.5 -117.5q0 -50 -30 -94t-77 -60v-135
q0 -29 14 -54q37 -68 125 -68h59v119q-74 -6 -75 45v15q53 40 83.5 101t30.5 126q0 117 -77 204q-70 79 -159 90v100z" />
    <glyph glyph-name="pi" unicode="&#x3c0;" horiz-adv-x="514" 
d="M31 463q36 -2 87 -2q218 0 368 20l-17 -86q-12 -4 -36 -9q-4 -22 -3 -73q1 -110 17 -189q9 -46 36 -103l-95 -21q-61 156 -71 366v-2q-50 -14 -131 -15q0 -101 -10 -158q-15 -90 -63 -191h-89q17 37 34 124q16 80 17 179q0 32 -2 51q-19 3 -37 7z" />
    <glyph glyph-name="endash" unicode="&#x2013;" horiz-adv-x="514" 
d="M62 305h397v-108h-397v108z" />
    <glyph glyph-name="emdash" unicode="&#x2014;" horiz-adv-x="690" 
d="M62 305h577v-108h-577v108z" />
    <glyph glyph-name="quoteleft" unicode="&#x2018;" horiz-adv-x="239" 
d="M186 809l-67 -207h-102l115 207h54z" />
    <glyph glyph-name="quoteright" unicode="&#x2019;" horiz-adv-x="239" 
d="M17 602l67 207h102l-115 -207h-54z" />
    <glyph glyph-name="quotesinglbase" unicode="&#x201a;" horiz-adv-x="239" 
d="M17 -87l67 207h102l-115 -207h-54z" />
    <glyph glyph-name="quotedblleft" unicode="&#x201c;" horiz-adv-x="365" 
d="M186 809l-67 -207h-102l115 207h54zM336 809l-67 -207h-102l115 207h54z" />
    <glyph glyph-name="quotedblright" unicode="&#x201d;" horiz-adv-x="365" 
d="M167 602l67 207h102l-115 -207h-54zM17 602l67 207h102l-115 -207h-54z" />
    <glyph glyph-name="quotedblbase" unicode="&#x201e;" horiz-adv-x="365" 
d="M167 -88l67 207h102l-115 -207h-54zM17 -88l67 207h102l-115 -207h-54z" />
    <glyph glyph-name="dagger" unicode="&#x2020;" horiz-adv-x="406" 
d="M30 558q47 -24 104 -29q6 111 27 185l114 -28q-21 -78 -31 -166q27 -3 52 0q30 3 63 14l25 -74q-62 -28 -117 -33l-28 -2q-3 -30 -17 -454l-67 43q-25 233 -25 409q-55 1 -110 14z" />
    <glyph glyph-name="daggerdbl" unicode="&#x2021;" horiz-adv-x="406" 
d="M30 558q47 -24 104 -29q6 111 27 185l114 -28q-21 -78 -31 -166q27 -3 52 0q30 3 63 14l25 -74q-62 -28 -117 -33l-28 -2q-1 -15 -6 -141l101 -16l-9 -65q-36 1 -95 -1l-8 -231l-67 43q-4 39 -16 183q-39 -3 -85 -6q-9 23 -9 45q0 30 17 67q36 -2 71 -5q-3 69 -3 125
q-55 1 -110 14z" />
    <glyph glyph-name="bullet" unicode="&#x2022;" horiz-adv-x="284" 
d="M224 292q0 -32 -23 -55t-55 -23t-55 23t-23 55t23 55t55 23t55 -23t23 -55z" />
    <glyph glyph-name="ellipsis" unicode="&#x2026;" horiz-adv-x="705" 
d="M198 48q0 -24 -17.5 -41t-41.5 -17t-41 17t-17 41t17 41t41 17t41.5 -17t17.5 -41zM395 48q0 -24 -17 -41t-41 -17t-41 17t-17 41t17 41t41 17t41 -17t17 -41zM593 48q0 -24 -17 -41t-41 -17t-41.5 17t-17.5 41t17.5 41t41.5 17t41 -17t17 -41z" />
    <glyph glyph-name="perthousand" unicode="&#x2030;" horiz-adv-x="1202" 
d="M525 674h52l-248 -650h-55zM320 282h-288v421h288v-421zM255 353v277h-159v-277h159zM831 -1h-289v421h289v-421zM765 71v277h-159v-277h159zM1161 -1h-289v421h289v-421zM1095 71v277h-159v-277h159z" />
    <glyph glyph-name="guilsinglleft" unicode="&#x2039;" horiz-adv-x="249" 
d="M217 417l-68 -172l68 -191h-63l-124 191l124 172h63z" />
    <glyph glyph-name="guilsinglright" unicode="&#x203a;" horiz-adv-x="246" 
d="M30 417l68 -172l-68 -191h62l125 191l-125 172h-62z" />
    <glyph glyph-name="fraction" unicode="&#x2044;" horiz-adv-x="338" 
d="M270 646h52l-248 -650h-55z" />
    <glyph glyph-name="euro" unicode="&#x20ac;" horiz-adv-x="649" 
d="M624 581h-384v-98h287v-75h-290v-65h290v-76h-289q14 -150 202 -148l176 1l-1 -120h-181q-313 0 -320 267h-65v76h65v64h-66v76h70v219l506 1v-122z" />
    <glyph glyph-name="trademark" unicode="&#x2122;" horiz-adv-x="508" 
d="M213 624h-65v-174h-37v109h-63v38h63v27h-63v37h165v-37zM454 487q0 -37 -32 -37h-31v36h13q13 0 13 15v58h-54v-20h-37v20h-55v-109h-37v211h92v29h38v-29h90v-174zM417 595v29h-53v-29h53zM326 596v28h-54v-28h54z" />
    <glyph glyph-name="partialdiff" unicode="&#x2202;" horiz-adv-x="509" 
d="M465 304q0 -130 -40 -211q-55 -112 -181 -112q-96 0 -154 59.5t-58 159.5q0 146 138 220l78 -80q-39 -12 -72 -46q-36 -39 -36 -80q0 -47 24 -76q26 -32 71 -31q131 2 131 254q0 214 -146 390l47 49q108 -112 160 -268q38 -116 38 -228z" />
    <glyph glyph-name="product" unicode="&#x220f;" horiz-adv-x="650" 
d="M430 581h-207v-581h-123v581h-60v121h223v98h127v-98h223v-121h-60v-581h-123v581z" />
    <glyph glyph-name="summation" unicode="&#x2211;" horiz-adv-x="697" 
d="M651 120v-119l-600 -1l1 130l294 311l-287 349v132h589v-122h-439l305 -362l-320 -319z" />
    <glyph glyph-name="radical" unicode="&#x221a;" horiz-adv-x="580" 
d="M9 360h157l96 -250l231 592h82l-270 -701h-1v-1h-85l1 2l-112 285h-99v73z" />
    <glyph glyph-name="infinity" unicode="&#x221e;" horiz-adv-x="630" 
d="M599 303q0 -57 -36 -91.5t-94 -34.5q-51 0 -89 29q-25 20 -63 72q-41 -52 -70 -73q-40 -28 -90 -28q-55 0 -90 44t-35 101q0 59 36.5 99t94.5 40q97 2 150 -103q36 51 66 73q37 25 85 25q136 0 135 -153zM462 387q-66 0 -119 -69q31 -43 49 -57q27 -22 70 -22q76 0 76 74
q0 28 -19 49q-21 25 -57 25zM288 319q-28 41 -47 57q-29 25 -67 25q-37 0 -59.5 -24t-22.5 -61q0 -75 79 -75q36 0 67 26q4 3 50 52z" />
    <glyph glyph-name="integral" unicode="&#x222b;" horiz-adv-x="352" 
d="M179 586q0 -48 22 -113q21 -55 42 -109q46 -123 46 -232q0 -134 -71.5 -210.5t-205.5 -91.5l-14 80q176 7 176 178q0 62 -36 165q-47 135 -49 142q-25 83 -25 147q0 134 71.5 210.5t205.5 91.5l14 -80q-176 -7 -176 -178z" />
    <glyph glyph-name="approxequal" unicode="&#x2248;" horiz-adv-x="460" 
d="M66 482q28 24 79 30q53 0 84 -30q34 -33 87 -30q51 0 82 30v-123q-43 -30 -82 -30q-51 0 -87 30q-24 16 -34 21q-21 8 -50 9q-48 -1 -79 -30v123zM66 242q28 24 79 30q53 0 84 -30q34 -33 87 -30q51 0 82 30v-123q-43 -30 -82 -30q-51 0 -87 30q-24 16 -34 21
q-21 8 -50 9q-48 -1 -79 -30v123z" />
    <glyph glyph-name="approxequal" unicode="&#x22f2;" horiz-adv-x="460" 
d="M66 482q28 24 79 30q53 0 84 -30q34 -33 87 -30q51 0 82 30v-123q-43 -30 -82 -30q-51 0 -87 30q-24 16 -34 21q-21 8 -50 9q-48 -1 -79 -30v123zM66 242q28 24 79 30q53 0 84 -30q34 -33 87 -30q51 0 82 30v-123q-43 -30 -82 -30q-51 0 -87 30q-24 16 -34 21
q-21 8 -50 9q-48 -1 -79 -30v123z" />
    <glyph glyph-name="notequal" unicode="&#x2260;" horiz-adv-x="460" 
d="M302 581h82l-39 -98h53v-123h-101l-47 -118h148v-123h-196l-47 -119h-85l48 119h-52v123h101l47 118h-148v123h197z" />
    <glyph glyph-name="lessequal" unicode="&#x2264;" horiz-adv-x="320" 
d="M58 73h202v-73h-202v73zM247 482l-68 -172l68 -191h-63l-124 191l124 172h63z" />
    <glyph glyph-name="greaterequal" unicode="&#x2265;" horiz-adv-x="320" 
d="M260 73h-202v-73h202v73zM71 482l68 -172l-68 -191h63l124 191l-124 172h-63z" />
    <glyph glyph-name="lozenge" unicode="&#x25ca;" horiz-adv-x="446" 
d="M295 0h-141l-130 291l130 290h141l125 -288zM224 443l-76 -154l76 -152l70 154z" />
    <glyph glyph-name="apple" unicode="&#xf000;" horiz-adv-x="855" 
d="M806 -3h-176l-275 404l273 401h178v-805zM300 -3h-300v805h298l-274 -400z" />
    <glyph glyph-name="fi" unicode="&#xf001;" horiz-adv-x="566" 
d="M345 801l-17 -102q-40 10 -56 10q-34 0 -53 -33q-16 -27 -16 -64q0 -19 8 -110q37 21 94 20q-17 -63 -17 -129q-27 6 -58 -9q17 -155 17 -209q0 -186 -91 -186q-76 0 -111 103q-23 69 -23 165q0 68 23 110q20 35 76 82q-11 146 -11 140q0 222 175 222q5 0 60 -10z
M165 126q0 43 -10 106l-18 106q-31 -22 -42 -46t-11 -63q0 -44 14 -99q17 -71 44 -71q23 0 23 67zM552 636q0 -27 -19 -46t-46 -19t-46 19t-19 46t19 46t46 19t46 -19t19 -46zM527 459q-35 -78 -35 -224q0 -120 27 -219l-82 -26q-69 133 -69 308q0 124 30 215
q64 -13 129 -54z" />
    <glyph glyph-name="fl" unicode="&#xf002;" horiz-adv-x="560" 
d="M382 779l-42 -87q-29 21 -66 21q-34 0 -55 -34q-17 -29 -17 -66q0 -19 9 -110q36 23 87 35l-16 -133q-20 -4 -52 -20q17 -155 17 -209q0 -186 -91 -186q-77 0 -111 103q-23 69 -23 165q0 68 23 110q19 35 76 82q-11 146 -11 140q0 105 63 169q60 60 151 60q12 1 13 0
q128 -11 183 -37l8 -72q6 -54 4 -117q-8 -185 -34 -317q-29 -140 -90 -281l-64 20q15 74 45 220q20 94 28 253q2 44 -11 130q-24 159 -24 161zM164 127q0 43 -10 106q-9 53 -17 106q-31 -22 -42 -46t-11 -63q0 -44 13 -99q18 -71 45 -71q22 0 22 67z" />
    <glyph glyph-name="NULL" horiz-adv-x="0" 
 />
    </font>
</defs>
</svg>
