<?xml version="1.0" encoding="utf-8"?>
<!-- Generator: Adobe Illustrator 21.1.0, SVG Export Plug-In . SVG Version: 6.00 Build 0)  -->
<svg version="1.1" class="border-bottom" xmlns="http://www.w3.org/2000/svg" xmlns:xlink="http://www.w3.org/1999/xlink" x="0px" y="0px"
	 viewBox="0 0 212.3 212.6" style="enable-background:new 0 0 212.3 212.6;" xml:space="preserve">

<g>
	<polygon class="" points="196.3,212.6 196.3,204 193,204 193,209.3 186.6,209.3 186.6,202.9 198.3,202.9 198.3,199.6
		183.3,199.6 183.3,212.6 	"/>
	<polygon class="" points="193,177.2 193,198.6 196.3,198.6 196.3,180.5 212.3,180.5 212.3,167.6 205.8,167.6 205.8,161.2
		212.3,161.2 212.3,0 209,0 209,157.9 202.5,157.9 202.5,170.8 209,170.8 209,177.2 	"/>
	<polygon class="" points="203.7,202.9 209,202.9 209,209.3 202.6,209.3 202.6,197.6 199.3,197.6 199.3,212.6 212.3,212.6
		212.3,199.6 203.7,199.6 	"/>
	<polygon class="st0" points="202.6,186.9 209,186.9 209,193.3 197.3,193.3 197.3,196.6 212.3,196.6 212.3,183.6 199.3,183.6
		199.3,192.2 202.6,192.2 	"/>
	<polygon class="" points="160.9,212.6 160.9,206.1 167.3,206.1 167.3,212.6 180.2,212.6 180.2,196.6 191.9,196.6 191.9,193.3
		176.9,193.3 176.9,209.3 170.5,209.3 170.5,202.8 157.6,202.8 157.6,209.3 0,209.3 0,212.6 	"/>
</g>
</svg>
