<?xml version="1.0" encoding="utf-8"?>
<!-- Generator: Adobe Illustrator 21.1.0, SVG Export Plug-In . SVG Version: 6.00 Build 0)  -->
<svg version="1.1" id="Layer_1" xmlns="http://www.w3.org/2000/svg" xmlns:xlink="http://www.w3.org/1999/xlink" x="0px" y="0px"
	 viewBox="0 0 212.3 212.6" style="enable-background:new 0 0 212.3 212.6;" xml:space="preserve">

	<polygon class="" points="16,0 16,8.6 19.3,8.6 19.3,3.3 25.7,3.3 25.7,9.7 14,9.7 14,13 29,13 29,0 	"/>
	<polygon class="" points="19.3,35.4 19.3,14 16,14 16,32.1 0,32.1 0,45 6.5,45 6.5,51.4 0,51.4 0,212.6 3.3,212.6 3.3,54.7
		9.8,54.7 9.8,41.8 3.3,41.8 3.3,35.4 	"/>
	<polygon class="" points="8.6,9.7 3.3,9.7 3.3,3.3 9.7,3.3 9.7,15 13,15 13,0 0,0 0,13 8.6,13 	"/>
	<polygon class="" points="9.7,25.7 3.3,25.7 3.3,19.3 15,19.3 15,16 0,16 0,29 13,29 13,20.4 9.7,20.4 	"/>
	<polygon class="" points="51.4,0 51.4,6.5 45,6.5 45,0 32.1,0 32.1,16 20.4,16 20.4,19.3 35.4,19.3 35.4,3.3 41.8,3.3 41.8,9.8
		54.7,9.8 54.7,3.3 212.3,3.3 212.3,0 	"/>

</svg>
