<?xml version="1.0" encoding="utf-8"?>
<!-- Generator: Adobe Illustrator 21.1.0, SVG Export Plug-In . SVG Version: 6.00 Build 0)  -->
<svg version="1.1" id="Layer_1" xmlns="http://www.w3.org/2000/svg" xmlns:xlink="http://www.w3.org/1999/xlink" x="0px" y="0px"
	 viewBox="0 0 142.5 142.9" style="enable-background:new 0 0 142.5 142.9;" xml:space="preserve">

<path class="st0" d="M42,120.9c-8-4.8-19.4-18.7-19.4-18.7l32.4,0.1v39.9C27.8,136,6.5,114.4,0.6,87.1l0.4,0h140.1l0.6,0
	c-5.8,27.1-26.8,48.5-53.6,55v-39.8l31.5-0.1c0,0-11,13.6-18.7,18.4"/>
<path class="st0" d="M42,22.8c-7.9,4.7-19.2,18.7-19.2,18.7h32l0.2-40C28.5,7.6,7.6,28.2,1.1,54.6l0.2,0h140.1l0,0
	c-6.4-26.1-27-46.6-53.1-52.9l0,39.9h31.7c0,0-11.2-13.6-18.8-18.3"/>
<line class="st0" x1="71.4" y1="0" x2="71.4" y2="54.4"/>
<line class="st0" x1="71.4" y1="87" x2="71.4" y2="141.4"/>
</svg>
