<svg id="Layer_1" xmlns="http://www.w3.org/2000/svg" viewBox="0 0 300 300"><style>.st0,.st1{fill:none}.st1{stroke:#000;stroke-width:2;stroke-miterlimit:10}.st2{display:none}.st3{display:inline}.st4{fill:url(#nasty_triangle)}</style><pattern width="296" height="314" patternUnits="userSpaceOnUse" id="nasty_triangle" viewBox="18.5 -314 296 314" overflow="visible"><path class="st0" d="M18.5-314h296V0h-296z"/><path class="st1" d="M254.2-93.3l-5.3 9.2h53.5l-5.3-9.2zm6.6-28l-5.4-9.2-13.3 23.2-13.3 23.2h10.7zm.4-17.8l5.4-9.2 13.3 23.2 13.3 23.2h-10.6zm41.9-3.2l-5.4-9.3h53.6l-5.4 9.3zm6.6 27.9l-5.4 9.3-13.3-23.3-13.3-23.2h10.6zm.4 17.8l5.3 9.2 13.4-23.2 13.3-23.2h-10.7zm-55.9 32.9l-5.3-9.2h53.5l-5.3 9.2zm6.6 28l-5.4 9.2-13.3-23.2-13.3-23.2h10.7zm.4 17.8l5.4 9.2 13.3-23.2 13.3-23.2h-10.6zM303.1-14.7l-5.4 9.3h53.6l-5.4-9.3zm6.6-27.9l-5.4-9.3L291-28.6 277.7-5.4h10.6zm.4-17.8l5.3-9.2 13.4 23.2 13.3 23.2h-10.7zM203.9-14.8l-5.3 9.2h53.5l-5.3-9.2zm6.6-28l-5.4-9.2-13.3 23.2-13.3 23.2h10.7zm.4-17.8l5.4-9.2 13.3 23.2 13.3 23.2h-10.6zM106.2-14.8l-5.3 9.2h53.5l-5.3-9.2zm6.6-28l-5.4-9.2-13.3 23.2L80.8-5.6h10.7zm.4-17.8l5.4-9.2 13.3 23.2 13.3 23.2h-10.6zM155.1-63.8l-5.4-9.3h53.6l-5.4 9.3zm6.6 27.9l-5.4 9.3L143-49.9l-13.3-23.2h10.6zm.4 17.8l5.3 9.2 13.4-23.2 13.3-23.2h-10.7zM55.9-93.3l-5.3 9.2h53.5l-5.3-9.2zm6.6-28l-5.4-9.2-13.3 23.2-13.3 23.2h10.7zm.4-17.8l5.4-9.2 13.3 23.2 13.3 23.2H84.3zM7.1-142.3l-5.4-9.3h53.6l-5.4 9.3zm7 45.7l5.3 9.2 13.4-23.2 13.3-23.2H35.4zM55.9-63.7l-5.3-9.2h53.5l-5.3 9.2zm6.6 28l-5.4 9.2-13.3-23.2-13.3-23.2h10.7zm.4 17.8l5.4 9.2 13.3-23.2 13.3-23.2H84.3zM7.1-14.7L1.7-5.4h53.6l-5.4-9.3zm7-45.7l5.3-9.2 13.4 23.2 13.3 23.2H35.4z"/><g><path class="st1" d="M254.2-250.3l-5.3 9.2h53.5l-5.3-9.2zm6.6-28l-5.4-9.2-13.3 23.2-13.3 23.2h10.7zm.4-17.8l5.4-9.2 13.3 23.2 13.3 23.2h-10.6zM303.1-299.3l-5.4-9.3h53.6l-5.4 9.3zm6.6 27.9l-5.4 9.3-13.3-23.3-13.3-23.2h10.6zm.4 17.8l5.3 9.2 13.4-23.2 13.3-23.2h-10.7zM254.2-220.7l-5.3-9.2h53.5l-5.3 9.2zm6.6 28l-5.4 9.2-13.3-23.2-13.3-23.2h10.7zm.4 17.8l5.4 9.2 13.3-23.2 13.3-23.2h-10.6zM303.1-171.7l-5.4 9.3h53.6l-5.4-9.3zm6.6-27.9l-5.4-9.3-13.3 23.3-13.3 23.2h10.6zm.4-17.8l5.3-9.2 13.4 23.2 13.3 23.2h-10.7z"/></g><g><path class="st1" d="M203.9-171.8l-5.3 9.2h53.5l-5.3-9.2zm6.6-28l-5.4-9.2-13.3 23.2-13.3 23.2h10.7zm.4-17.8l5.4-9.2 13.3 23.2 13.3 23.2h-10.6zM106.2-171.8l-5.3 9.2h53.5l-5.3-9.2zm6.6-28l-5.4-9.2-13.3 23.2-13.3 23.2h10.7zm.4-17.8l5.4-9.2 13.3 23.2 13.3 23.2h-10.6zM155.1-220.8l-5.4-9.3h53.6l-5.4 9.3zm6.6 27.9l-5.4 9.3-13.3-23.3-13.3-23.2h10.6zm.4 17.8l5.3 9.2 13.4-23.2 13.3-23.2h-10.7zM203.9-142.2l-5.3-9.2h53.5l-5.3 9.2zm6.6 28l-5.4 9.2-13.3-23.2-13.3-23.2h10.7zm.4 17.8l5.4 9.2 13.3-23.2 13.3-23.2h-10.6zM106.2-142.2l-5.3-9.2h53.5l-5.3 9.2zm6.6 28l-5.4 9.2-13.3-23.2-13.3-23.2h10.7zm.4 17.8l5.4 9.2 13.3-23.2 13.3-23.2h-10.6zM155.1-93.2l-5.4 9.3h53.6l-5.4-9.3zm6.6-27.9l-5.4-9.3-13.3 23.3-13.3 23.2h10.6zm.4-17.8l5.3-9.2 13.4 23.2 13.3 23.2h-10.7z"/></g><g><path class="st1" d="M55.9-250.3l-5.3 9.2h53.5l-5.3-9.2zm6.6-28l-5.4-9.2-13.3 23.2-13.3 23.2h10.7zm.4-17.8l5.4-9.2 13.3 23.2 13.3 23.2H84.3zM7.1-299.3l-5.4-9.3h53.6l-5.4 9.3zm7 45.7l5.3 9.2 13.4-23.2 13.3-23.2H35.4zM55.9-220.7l-5.3-9.2h53.5l-5.3 9.2zm6.6 28l-5.4 9.2-13.3-23.2-13.3-23.2h10.7zm.4 17.8l5.4 9.2 13.3-23.2 13.3-23.2H84.3zM7.1-171.7l-5.4 9.3h53.6l-5.4-9.3zm7-45.7l5.3-9.2 13.4 23.2 13.3 23.2H35.4z"/></g><g><path class="st1" d="M203.9-299.2l-5.3-9.2h53.5l-5.3 9.2zm6.6 28l-5.4 9.2-13.3-23.2-13.3-23.2h10.7zm.4 17.8l5.4 9.2 13.3-23.2 13.3-23.2h-10.6zM106.2-299.2l-5.3-9.2h53.5l-5.3 9.2zm6.6 28l-5.4 9.2-13.3-23.2-13.3-23.2h10.7zm.4 17.8l5.4 9.2 13.3-23.2 13.3-23.2h-10.6zM155.1-250.2l-5.4 9.3h53.6l-5.4-9.3zm6.6-27.9l-5.4-9.3-13.3 23.3-13.3 23.2h10.6zm.4-17.8l5.3-9.2 13.4 23.2 13.3 23.2h-10.7z"/></g></pattern><g class="st2"><g class="st3"><path class="st1" d="M186.9 86.9l-5.4 9.2h53.6l-5.4-9.2zm6.6-28l-5.4-9.2-13.3 23.2-13.3 23.2h10.6zm.4-17.7l5.4-9.3 13.3 23.2 13.3 23.3-10.7-.1zM89.2 86.9l-5.4 9.2h53.6l-5.4-9.2zm6.6-28l-5.4-9.2-13.3 23.2-13.3 23.2h10.6zm.4-17.7l5.4-9.3 13.3 23.2 13.3 23.3-10.7-.1zM138 37.9l-5.3-9.3h53.5l-5.3 9.3zm6.6 28l-5.4 9.2-13.3-23.2-13.3-23.2h10.7zm.4 17.7l5.4 9.3 13.3-23.3L177 46.4l-10.6.1z"/></g><g class="st3"><path class="st1" d="M186.9 116.6l-5.4-9.3h53.6l-5.4 9.3zm6.6 27.9l-5.4 9.3-13.3-23.2-13.3-23.3 10.6.1zm.4 17.8l5.4 9.2 13.3-23.2 13.3-23.2h-10.7zM89.2 116.6l-5.4-9.3h53.6l-5.4 9.3zm6.6 27.9l-5.4 9.3-13.3-23.2-13.3-23.3 10.6.1zm.4 17.8l5.4 9.2 13.3-23.2 13.3-23.2h-10.7zM138 165.6l-5.3 9.2h53.5l-5.3-9.2zm6.6-28l-5.4-9.2-13.3 23.2-13.3 23.2h10.7zm.4-17.8l5.4-9.2 13.3 23.2 13.3 23.3-10.6-.1z"/></g></g><path class="st4" d="M0 0h300v300H0z"/></svg>