<svg id="Layer_1" xmlns="http://www.w3.org/2000/svg" viewBox="0 0 300 300">
  <style>
    .st0{fill:none;} .st1{fill:none;stroke:#000000;stroke-width:2;stroke-miterlimit:10;} .st2{display:none;} .st3{display:inline;} .st4{fill:url(#nasty_triangle);}
  </style>
  <pattern width="296" height="314" patternUnits="userSpaceOnUse" id="nasty_triangle" viewBox="18.5 -314 296 314" overflow="visible">
    <path class="st0" d="M18.5-314h296V0h-296z"/>
    <path class="st1" d="M254.2-93.3l-5.3 9.2h53.5l-5.3-9.2zM260.8-121.3l-5.4-9.2-13.3 23.2-13.3 23.2h10.7zM261.2-139.1l5.4-9.2 13.3 23.2 13.3 23.2h-10.6zM303.1-142.3l-5.4-9.3h53.6l-5.4 9.3zM309.7-114.4l-5.4 9.3-13.3-23.3-13.3-23.2h10.6zM310.1-96.6l5.3 9.2 13.4-23.2 13.3-23.2h-10.7zM254.2-63.7l-5.3-9.2h53.5l-5.3 9.2zM260.8-35.7l-5.4 9.2-13.3-23.2-13.3-23.2h10.7zM261.2-17.9l5.4 9.2 13.3-23.2 13.3-23.2h-10.6z"/>
    <g>
      <path class="st1" d="M303.1-14.7l-5.4 9.3h53.6l-5.4-9.3zM309.7-42.6l-5.4-9.3L291-28.6 277.7-5.4h10.6zM310.1-60.4l5.3-9.2 13.4 23.2 13.3 23.2h-10.7z"/>
    </g>
    <g>
      <path class="st1" d="M203.9-14.8l-5.3 9.2h53.5l-5.3-9.2zM210.5-42.8l-5.4-9.2-13.3 23.2-13.3 23.2h10.7zM210.9-60.6l5.4-9.2 13.3 23.2 13.3 23.2h-10.6z"/>
      <g>
        <path class="st1" d="M106.2-14.8l-5.3 9.2h53.5l-5.3-9.2zM112.8-42.8l-5.4-9.2-13.3 23.2L80.8-5.6h10.7zM113.2-60.6l5.4-9.2 13.3 23.2 13.3 23.2h-10.6z"/>
      </g>
      <g>
        <path class="st1" d="M155.1-63.8l-5.4-9.3h53.6l-5.4 9.3zM161.7-35.9l-5.4 9.3L143-49.9l-13.3-23.2h10.6zM162.1-18.1l5.3 9.2 13.4-23.2 13.3-23.2h-10.7z"/>
      </g>
    </g>
    <g>
      <path class="st1" d="M55.9-93.3l-5.3 9.2h53.5l-5.3-9.2zM62.5-121.3l-5.4-9.2-13.3 23.2-13.3 23.2h10.7zM62.9-139.1l5.4-9.2 13.3 23.2 13.3 23.2H84.3z"/>
      <g>
        <path class="st1" d="M7.1-142.3l-5.4-9.3h53.6l-5.4 9.3zM14.1-96.6l5.3 9.2 13.4-23.2 13.3-23.2H35.4z"/>
      </g>
      <g>
        <path class="st1" d="M55.9-63.7l-5.3-9.2h53.5l-5.3 9.2zM62.5-35.7l-5.4 9.2-13.3-23.2-13.3-23.2h10.7zM62.9-17.9l5.4 9.2 13.3-23.2 13.3-23.2H84.3z"/>
        <g>
          <path class="st1" d="M7.1-14.7L1.7-5.4h53.6l-5.4-9.3zM14.1-60.4l5.3-9.2 13.4 23.2 13.3 23.2H35.4z"/>
        </g>
      </g>
    </g>
    <g>
      <path class="st1" d="M254.2-250.3l-5.3 9.2h53.5l-5.3-9.2zM260.8-278.3l-5.4-9.2-13.3 23.2-13.3 23.2h10.7zM261.2-296.1l5.4-9.2 13.3 23.2 13.3 23.2h-10.6z"/>
      <g>
        <path class="st1" d="M303.1-299.3l-5.4-9.3h53.6l-5.4 9.3zM309.7-271.4l-5.4 9.3-13.3-23.3-13.3-23.2h10.6zM310.1-253.6l5.3 9.2 13.4-23.2 13.3-23.2h-10.7z"/>
      </g>
      <g>
        <path class="st1" d="M254.2-220.7l-5.3-9.2h53.5l-5.3 9.2zM260.8-192.7l-5.4 9.2-13.3-23.2-13.3-23.2h10.7zM261.2-174.9l5.4 9.2 13.3-23.2 13.3-23.2h-10.6z"/>
        <g>
          <path class="st1" d="M303.1-171.7l-5.4 9.3h53.6l-5.4-9.3zM309.7-199.6l-5.4-9.3-13.3 23.3-13.3 23.2h10.6zM310.1-217.4l5.3-9.2 13.4 23.2 13.3 23.2h-10.7z"/>
        </g>
      </g>
    </g>
    <g>
      <path class="st1" d="M203.9-171.8l-5.3 9.2h53.5l-5.3-9.2zM210.5-199.8l-5.4-9.2-13.3 23.2-13.3 23.2h10.7zM210.9-217.6l5.4-9.2 13.3 23.2 13.3 23.2h-10.6z"/>
      <g>
        <path class="st1" d="M106.2-171.8l-5.3 9.2h53.5l-5.3-9.2zM112.8-199.8l-5.4-9.2-13.3 23.2-13.3 23.2h10.7zM113.2-217.6l5.4-9.2 13.3 23.2 13.3 23.2h-10.6z"/>
      </g>
      <g>
        <path class="st1" d="M155.1-220.8l-5.4-9.3h53.6l-5.4 9.3zM161.7-192.9l-5.4 9.3-13.3-23.3-13.3-23.2h10.6zM162.1-175.1l5.3 9.2 13.4-23.2 13.3-23.2h-10.7z"/>
      </g>
      <g>
        <path class="st1" d="M203.9-142.2l-5.3-9.2h53.5l-5.3 9.2zM210.5-114.2l-5.4 9.2-13.3-23.2-13.3-23.2h10.7zM210.9-96.4l5.4 9.2 13.3-23.2 13.3-23.2h-10.6z"/>
        <g>
          <path class="st1" d="M106.2-142.2l-5.3-9.2h53.5l-5.3 9.2zM112.8-114.2l-5.4 9.2-13.3-23.2-13.3-23.2h10.7zM113.2-96.4l5.4 9.2 13.3-23.2 13.3-23.2h-10.6z"/>
        </g>
        <g>
          <path class="st1" d="M155.1-93.2l-5.4 9.3h53.6l-5.4-9.3zM161.7-121.1l-5.4-9.3-13.3 23.3-13.3 23.2h10.6zM162.1-138.9l5.3-9.2 13.4 23.2 13.3 23.2h-10.7z"/>
        </g>
      </g>
    </g>
    <g>
      <path class="st1" d="M55.9-250.3l-5.3 9.2h53.5l-5.3-9.2zM62.5-278.3l-5.4-9.2-13.3 23.2-13.3 23.2h10.7zM62.9-296.1l5.4-9.2 13.3 23.2 13.3 23.2H84.3z"/>
      <g>
        <path class="st1" d="M7.1-299.3l-5.4-9.3h53.6l-5.4 9.3zM14.1-253.6l5.3 9.2 13.4-23.2 13.3-23.2H35.4z"/>
      </g>
      <g>
        <path class="st1" d="M55.9-220.7l-5.3-9.2h53.5l-5.3 9.2zM62.5-192.7l-5.4 9.2-13.3-23.2-13.3-23.2h10.7zM62.9-174.9l5.4 9.2 13.3-23.2 13.3-23.2H84.3z"/>
        <g>
          <path class="st1" d="M7.1-171.7l-5.4 9.3h53.6l-5.4-9.3zM14.1-217.4l5.3-9.2 13.4 23.2 13.3 23.2H35.4z"/>
        </g>
      </g>
    </g>
    <g>
      <path class="st1" d="M203.9-299.2l-5.3-9.2h53.5l-5.3 9.2zM210.5-271.2l-5.4 9.2-13.3-23.2-13.3-23.2h10.7zM210.9-253.4l5.4 9.2 13.3-23.2 13.3-23.2h-10.6z"/>
      <g>
        <path class="st1" d="M106.2-299.2l-5.3-9.2h53.5l-5.3 9.2zM112.8-271.2l-5.4 9.2-13.3-23.2-13.3-23.2h10.7zM113.2-253.4l5.4 9.2 13.3-23.2 13.3-23.2h-10.6z"/>
      </g>
      <g>
        <path class="st1" d="M155.1-250.2l-5.4 9.3h53.6l-5.4-9.3zM161.7-278.1l-5.4-9.3-13.3 23.3-13.3 23.2h10.6zM162.1-295.9l5.3-9.2 13.4 23.2 13.3 23.2h-10.7z"/>
      </g>
    </g>
  </pattern>
  <g class="st2">
    <g class="st3">
      <path class="st1" d="M186.9 86.9l-5.4 9.2h53.6l-5.4-9.2zM193.5 58.9l-5.4-9.2-13.3 23.2-13.3 23.2h10.6zM193.9 41.2l5.4-9.3 13.3 23.2 13.3 23.3-10.7-.1z"/>
      <g>
        <path class="st1" d="M89.2 86.9l-5.4 9.2h53.6l-5.4-9.2zM95.8 58.9l-5.4-9.2-13.3 23.2-13.3 23.2h10.6zM96.2 41.2l5.4-9.3 13.3 23.2 13.3 23.3-10.7-.1z"/>
      </g>
      <g>
        <path class="st1" d="M138 37.9l-5.3-9.3h53.5l-5.3 9.3zM144.6 65.9l-5.4 9.2-13.3-23.2-13.3-23.2h10.7zM145 83.6l5.4 9.3 13.3-23.3L177 46.4l-10.6.1z"/>
      </g>
    </g>
    <g class="st3">
      <path class="st1" d="M186.9 116.6l-5.4-9.3h53.6l-5.4 9.3zM193.5 144.5l-5.4 9.3-13.3-23.2-13.3-23.3 10.6.1zM193.9 162.3l5.4 9.2 13.3-23.2 13.3-23.2h-10.7z"/>
      <g>
        <path class="st1" d="M89.2 116.6l-5.4-9.3h53.6l-5.4 9.3zM95.8 144.5l-5.4 9.3-13.3-23.2-13.3-23.3 10.6.1zM96.2 162.3l5.4 9.2 13.3-23.2 13.3-23.2h-10.7z"/>
      </g>
      <g>
        <path class="st1" d="M138 165.6l-5.3 9.2h53.5l-5.3-9.2zM144.6 137.6l-5.4-9.2-13.3 23.2-13.3 23.2h10.7zM145 119.8l5.4-9.2 13.3 23.2 13.3 23.3-10.6-.1z"/>
      </g>
    </g>
  </g>
  <path class="st4" d="M0 0h300v300H0z"/>
</svg>
