<svg id="Layer_1" xmlns="http://www.w3.org/2000/svg" xmlns:xlink="http://www.w3.org/1999/xlink" viewBox="0 0 300 300"><style>.st0{fill:none;stroke:#000;stroke-width:2;stroke-miterlimit:10}.st1{clip-path:url(#SVGID_2_)}.st2{clip-path:url(#SVGID_4_)}</style><path class="st0" d="M0 0h300v300H0z"/><path class="st0" d="M5.6 5.6h288.7v288.7H5.6z"/><defs><path id="SVGID_1_" d="M175.4 234.6h119.9v59.1H175.4z"/></defs><clipPath id="SVGID_2_"><use xlink:href="#SVGID_1_" overflow="visible"/></clipPath><g class="st1"><path class="st0" d="M288 284.1l6 3.5v-34.7l-6 3.4zM279.3 247.6l-15.7 9 6.2 3.6 25.2-14.4v-7.2zM283 282.1v-7.2l-25.2-14.4-6.2 3.6 15.7 9zM249 300.2v17.4l6-3.5v-27.8l-6-3.5zM274.2 290.1l6.2-3.6-15.7-9-15.7-9v7.2zM261 304.8v7.3l15.7-9 15.7-9-6.2-3.7zM238 314l6 3.4v-34.7l-6 3.5zM212.6 286.4l6.2 3.6 25.2-14.4v-7.2l-15.7 9zM206.8 290.3l-6.2 3.6 15.7 9L232 312v-7.3z"/></g><g><defs><path id="SVGID_3_" d="M5.6 5.6h107.1v60.7H5.6z"/></defs><clipPath id="SVGID_4_"><use xlink:href="#SVGID_3_" overflow="visible"/></clipPath><g class="st2"><path class="st0" d="M12 44.5L6 48V13.2l6 3.5zM31.2 40.6l6.2 3.7-15.7 9-15.7 9v-7.2zM43.2 40.4l6.2-3.7-15.7-9-15.7-9v7.2z"/><g><path class="st0" d="M45 14.6l6 3.4v-34.7l-6 3.4zM25.8 10.7l-6.2 3.6 15.7 9 15.7 9v-7.2zM13.8 10.4L7.6 6.8l15.7-9 15.7-9V-4z"/></g><g><path class="st0" d="M62 14.7l-6 3.4v-34.7l6 3.5zM81.2 10.8l6.2 3.6-15.7 9-15.7 9v-7.2zM93.2 10.5l6.2-3.6-15.7-9-15.7-9v7.2z"/></g></g></g></svg>