<svg xmlns="http://www.w3.org/2000/svg" viewBox="0 0 118.3 118.3"><path class="st0" d="M0 0v118.3h118.3V0H0zm113.3 56.7H90.7v-24h7v9.5h5V15.7H76.2v5h9.5v7h-24V5h51.7v51.7zm-22.6 34h7v7h-7v-7zm-58-29h11.8v12.2h12.2v11.8h-24v-24zm-5-34h-7v-7h7v7zm41.2 29h-7.3v-7.2h7.3v7.2zm-19.5 5h7.2v7.2h-7.2v-7.2zm12.3 0H69v7.2h-7.3v-7.2zm-5-5h-7.2v-7.2h7.2v7.2zM44.4 44.4v12.2H32.7v-24h24v11.8H44.4zm17.3 29.5H74V61.7h11.8v24h-24V73.9zm12.2-17.2V44.4H61.7V32.7h24v24H73.9zm23.8-29h-7v-7h7v7zM56.7 5v22.7h-24v-7h9.5v-5H15.7v26.5h5v-9.5h7v24H5V5h51.7zM5 61.7h22.7v24h-7v-9.5h-5v26.5h26.5v-5h-9.5v-7h24v22.7H5V61.7zm15.7 29h7v7h-7v-7zm41 22.6V90.7h24v7h-9.5v5h26.5V76.2h-5v9.5h-7v-24h22.7v51.7H61.7z"/></svg>