<svg class="gold-stroke" xmlns="http://www.w3.org/2000/svg" viewBox="0 0 132 132"><style>.st9{fill:#000}</style><path class="st9" d="M94.2 0H37.8L0 37.8v56.5L37.8 132h56.5L132 94.2V37.8L94.2 0zM126 63.5h-23L96.5 57l23.1-23.1 6.4 6.4v23.2zm-60 35L60.5 93l5.5-5.5 5.5 5.5-5.5 5.5zm0-18l-9 9-5.5-5.5L66 69.5 80.5 84 75 89.5l-9-9zM51.5 66l-9-9 5.5-5.5L62.5 66 48 80.5 42.5 75l9-9zM39 71.5L33.5 66l5.5-5.5 5.5 5.5-5.5 5.5zm27-38l5.5 5.5-5.5 5.5-5.5-5.5 5.5-5.5zm0 18l9-9 5.5 5.5L66 62.5 51.5 48l5.5-5.5 9 9zm18-7L78.5 39l23.1-23.1 5.5 5.5L84 44.5zm26.6-19.6l5.5 5.5L93 53.5 87.5 48l23.1-23.1zM48 44.5L24.9 21.4l5.5-5.5L53.5 39 48 44.5zM44.5 48L39 53.5 15.9 30.4l5.5-5.5L44.5 48zm0 36l-23.1 23.1-5.5-5.5L39 78.5l5.5 5.5zm3.5 3.5l5.5 5.5-23.1 23.1-5.5-5.5L48 87.5zm36 0l23.1 23.1-5.5 5.5L78.5 93l5.5-5.5zm3.5-3.5l5.5-5.5 23.1 23.1-5.5 5.5L87.5 84zM84 80.5L69.5 66 84 51.5l5.5 5.5-9 9 9 9-5.5 5.5zM87.5 66l5.5-5.5 5.5 5.5-5.5 5.5-5.5-5.5zm10.6-53.6L75 35.5 68.5 29V6h23.3l6.3 6.4zM40.2 6h23.3v23L57 35.5 33.9 12.4 40.2 6zM12.4 33.9L35.5 57 29 63.5H6V40.2l6.4-6.3zM6 68.5h23l6.5 6.5-23.1 23.1L6 91.8V68.5zm27.9 51.1L57 96.5l6.5 6.5v23H40.2l-6.3-6.4zm57.9 6.4H68.5v-23l6.5-6.5 23.1 23.1-6.3 6.4zm27.8-27.9L96.5 75l6.5-6.5h23v23.3l-6.4 6.3z"/></svg>