<svg xmlns="http://www.w3.org/2000/svg" viewBox="0 0 1039.1 34"><path class="st0" d="M1039.1 8.3V5.6H528.9L523.3 0l-5 5-5-5-5.6 5.6H0v2.7h507.6l3.7 3.7-3.1 3.1-5-5-5.6 5.6H0v2.7h497.6l5.6 5.6 5-5 3.1 3.1-3.7 3.7H0v2.7h507.6l5.6 5.6 5-5 5 5 5.6-5.6H1039v-2.7H528.9l-3.7-3.7 3.1-3.1 5 5 5.8-5.8H1039V16H539.2l-5.8-5.8-5 5-3.1-3.1 3.7-3.7 510.1-.1zm-519.3 5.2l-1.6 1.6-3.1-3.1 1.6-1.6 1.6-1.6 3.1 3.1-1.6 1.6zm1.6 8.5l-3.1 3.1-1.6-1.6-1.6-1.6 3.1-3.1 1.6 1.6 1.6 1.6zm-8.2-18.2l3.1 3.1-1.6 1.6-1.6 1.6L510 7l3.2-3.2zm-10 16.3l-3.1-3.1 3.1-3.1 3.1 3.1-3.1 3.1zm6.9-3.1l3.1-3.1 3.1 3.1-3.1 3.1-3.1-3.1zm0 10l3.1-3.1 1.6 1.6 1.6 1.6-3.1 3.1-3.2-3.2zm16.3 0l-3.1 3.1-3.1-3.1 3.1-3.1 3.1 3.1zm6.9-13.2l3.1 3.1-3.1 3.1-3.1-3.1 3.1-3.1zm-10 6.3l-1.6-1.6-1.6-1.6 1.6-1.6 1.6-1.6 3.1 3.1-3.1 3.3zm0-10L520.2 7l3.1-3.1 3.1 3.1-3.1 3.1z"/></svg>